<svg id="图层_1" data-name="图层 1" xmlns="http://www.w3.org/2000/svg" xmlns:xlink="http://www.w3.org/1999/xlink" viewBox="0 0 1600 1600"><defs><style>.cls-1{fill:#48b5bb;}.cls-2{fill:url(#未命名的渐变_10);}.cls-3{fill:url(#未命名的渐变_9);}.cls-4{fill:#fff;}</style><radialGradient id="未命名的渐变_10" cx="4613.68" cy="859.92" fx="4438.474548160797" fy="918.38919181271" r="184.7" gradientTransform="matrix(-0.23, -0.97, -0.97, 0.23, 2897.07, 5152.6)" gradientUnits="userSpaceOnUse"><stop offset="0.21" stop-color="#fbe984"/><stop offset="0.93" stop-color="#eb3fc4"/></radialGradient><radialGradient id="未命名的渐变_9" cx="4790.75" cy="512.81" fx="4734.627706074473" fy="677.3679294298311" r="176.49" gradientTransform="matrix(-1, 0.07, 0.07, 1, 5345.13, 26.51)" gradientUnits="userSpaceOnUse"><stop offset="0.31" stop-color="#fbe984"/><stop offset="0.83" stop-color="#eb3fc4"/></radialGradient></defs><path class="cls-1" d="M857.23,888.75a22.27,22.27,0,0,1-9.39-2.09l-1.77-.82a110.33,110.33,0,0,0-89.77-1.25,22.25,22.25,0,0,1-8.82,1.82h0A22.4,22.4,0,0,1,725.12,864V853.58A22.45,22.45,0,0,1,741.44,832l27.85-7.81a122.2,122.2,0,0,1,66.14,0L863.28,832a22.45,22.45,0,0,1,16.32,21.54v12.78A22.41,22.41,0,0,1,857.23,888.75Z"/><path d="M802.36,825.67A116.23,116.23,0,0,1,833.81,830l27.84,7.82a16.36,16.36,0,0,1,12,15.76v12.78a16.34,16.34,0,0,1-23.24,14.86l-1.77-.82a116.32,116.32,0,0,0-94.65-1.33h0A16.34,16.34,0,0,1,731.12,864V853.58a16.36,16.36,0,0,1,12-15.76L770.91,830a116.23,116.23,0,0,1,31.45-4.33m0-12a128.44,128.44,0,0,0-34.7,4.78l-27.84,7.81a28.48,28.48,0,0,0-20.7,27.32V864a28.34,28.34,0,0,0,39.55,26.08,104.31,104.31,0,0,1,84.88,1.19l1.78.82a28.33,28.33,0,0,0,40.27-25.75V853.58a28.48,28.48,0,0,0-20.7-27.32l-27.84-7.81a128.44,128.44,0,0,0-34.7-4.78Z"/><circle class="cls-2" cx="1000.14" cy="859.92" r="158.98" transform="translate(-66.56 1635.74) rotate(-76.72)"/><path d="M1000.14,706.94A153,153,0,1,1,892,751.75a152,152,0,0,1,108.17-44.81m0-12a165,165,0,1,0,165,165,165,165,0,0,0-165-165Z"/><path class="cls-3" d="M599.7,1019.06a159,159,0,0,1-10.51-317.6c3.6-.24,7.25-.37,10.84-.37a159,159,0,0,1,10.51,317.6c-3.6.24-7.25.37-10.83.37Z"/><path d="M600,707.09a153,153,0,0,1,10.11,305.61c-3.47.24-7,.36-10.44.36a153,153,0,0,1-10.11-305.61c3.47-.24,7-.36,10.44-.36m0-12c-3.73,0-7.47.13-11.24.38a165,165,0,0,0,10.91,329.59c3.73,0,7.47-.13,11.24-.38A165,165,0,0,0,600,695.09Z"/><path class="cls-4" d="M644.37,1012.73a165.8,165.8,0,0,1-68.32-77.8c-15.57-36.43-18-78.07-6.88-117.26C578.47,785,550.38,748,522.72,721a159.51,159.51,0,0,1,66.47-19.58l1.19-.08A242.94,242.94,0,0,1,611,729.85c22,36,28.34,71.39,18.78,105-7.2,25.35-5.7,52.09,4.21,75.29,10.48,24.55,29.62,43.56,55.34,55a215,215,0,0,1,20,10.18A158.59,158.59,0,0,1,644.37,1012.73Z"/><path d="M587.71,707.58A233,233,0,0,1,605.86,733C627,767.54,633.07,801.27,624,833.25c-7.57,26.66-6,54.82,4.46,79.29,11.09,26,31.29,46.06,58.43,58.12q6.17,2.75,12.16,5.89a152.35,152.35,0,0,1-53.85,29.66,161.9,161.9,0,0,1-36-30,159.29,159.29,0,0,1-27.61-43.61c-15-35.17-17.37-75.39-6.62-113.26,5.06-17.81.79-38-12.71-59.95-7.24-11.78-17.12-24.11-29.47-36.78a153.64,153.64,0,0,1,55-15m5.34-12.34c-1.42.06-2.84.14-4.26.23a164.2,164.2,0,0,0-76,24.43c27.9,26,59.71,64,50.57,96.13-11.5,40.5-9,83.56,7.13,121.26,14.89,34.85,39.93,62.85,73,81.9a164.48,164.48,0,0,0,75.48-45,221.5,221.5,0,0,0-27.27-14.47c-24.31-10.81-42.38-28.75-52.26-51.87-9.38-22-10.78-47.27-4-71.3,10-35.33,3.49-72.27-19.44-109.81a250.76,250.76,0,0,0-23.05-31.48Z"/><path class="cls-4" d="M1041.58,1013.44c-12.93-49.59-25.7-96.29-68.46-131-34.45-27.92-55.84-65.11-61.87-107.56a171.23,171.23,0,0,1-.13-46.73A158,158,0,0,1,984,701.77a112.33,112.33,0,0,0-10.38,64.3c3.75,26.43,17.3,49.76,39.17,67.49,53.07,43,72.62,100.06,86.27,150.81A159.47,159.47,0,0,1,1041.58,1013.44Z"/><path d="M974.31,709.13a117.4,117.4,0,0,0-6.64,57.79c4,28,18.26,52.6,41.33,71.3,24.11,19.53,42.94,43.36,57.58,72.83,11.6,23.35,19.27,47.75,25.63,71a153.66,153.66,0,0,1-46.39,23.87c-5.9-22.46-11.9-43.82-21-64.28-11.83-26.44-27.49-47.32-47.87-63.84-33.25-27-53.9-62.82-59.71-103.74a164.9,164.9,0,0,1-.46-42.42,152,152,0,0,1,57.58-22.54m20.11-14.08a164.12,164.12,0,0,0-88.87,29.7,177.36,177.36,0,0,0-.24,51c6.24,44,28.39,82.49,64,111.37,42,34.05,54.21,80.9,67.13,130.5l.8,3.05a164.39,164.39,0,0,0,68.58-34.13c-13.6-51.26-32.7-111.81-89.29-157.68-20.68-16.75-33.47-38.76-37-63.66-3.35-23.63,1.87-48.45,14.7-69.88l.17-.3Z"/></svg>