<svg id="图层_1" data-name="图层 1" xmlns="http://www.w3.org/2000/svg" xmlns:xlink="http://www.w3.org/1999/xlink" viewBox="0 0 1600 1600"><defs><style>.cls-1{fill:#48b5bb;}.cls-2{fill:url(#未命名的渐变_455);}.cls-3{fill:url(#未命名的渐变_455-2);}.cls-4{fill:#fff;}</style><linearGradient id="未命名的渐变_455" x1="487.5" y1="972.28" x2="712.22" y2="747.56" gradientTransform="translate(783.75 -172.3) rotate(45)" gradientUnits="userSpaceOnUse"><stop offset="0" stop-color="#1871b9"/><stop offset="0.52" stop-color="#dfcace"/><stop offset="1" stop-color="#bce2e8"/></linearGradient><linearGradient id="未命名的渐变_455-2" x1="666.14" y1="674.54" x2="890.97" y2="449.71" gradientTransform="translate(261.15 246.92) rotate(3.85)" xlink:href="#未命名的渐变_455"/></defs><path class="cls-1" d="M742.77,888.75a22.64,22.64,0,0,1-15.59-6.34,22.15,22.15,0,0,1-6.78-16V853.58A22.45,22.45,0,0,1,736.72,832l27.85-7.81a122.2,122.2,0,0,1,66.14,0L858.56,832a22.45,22.45,0,0,1,16.32,21.54V864a22.35,22.35,0,0,1-31.18,20.57,110.33,110.33,0,0,0-89.77,1.25l-1.77.82A22.27,22.27,0,0,1,742.77,888.75Z"/><path d="M797.64,825.67A116.23,116.23,0,0,1,829.09,830l27.84,7.82a16.36,16.36,0,0,1,12,15.76V864a16.34,16.34,0,0,1-22.82,15.05,116.32,116.32,0,0,0-94.65,1.33l-1.77.82a16.34,16.34,0,0,1-23.24-14.86V853.58a16.36,16.36,0,0,1,12-15.76L766.19,830a116.23,116.23,0,0,1,31.45-4.33m0-12a128.44,128.44,0,0,0-34.7,4.78l-27.84,7.81a28.48,28.48,0,0,0-20.7,27.32v12.78a28.33,28.33,0,0,0,40.27,25.75l1.78-.82a104.31,104.31,0,0,1,84.88-1.19A28.34,28.34,0,0,0,880.88,864V853.58a28.48,28.48,0,0,0-20.7-27.32l-27.84-7.81a128.44,128.44,0,0,0-34.7-4.78Z"/><circle class="cls-2" cx="599.86" cy="859.92" r="158.98" transform="translate(-432.36 676.03) rotate(-45)"/><path d="M599.86,706.94a153,153,0,1,1-108.17,44.81,152,152,0,0,1,108.17-44.81m0-12a165,165,0,1,0,165,165,165,165,0,0,0-165-165Z"/><path class="cls-3" d="M1000.3,1019.06c-3.59,0-7.24-.13-10.84-.37A159,159,0,0,1,1000,701.09c3.59,0,7.24.13,10.84.37a159,159,0,0,1-10.51,317.6Z"/><path d="M1000,707.09c3.45,0,7,.12,10.43.36a153,153,0,0,1-10.11,305.61c-3.46,0-7-.12-10.44-.36A153,153,0,0,1,1000,707.09h0m0-12a165,165,0,0,0-10.91,329.59c3.77.25,7.51.38,11.24.38a165,165,0,0,0,10.91-329.59c-3.77-.25-7.51-.38-11.24-.38Z"/><path class="cls-4" d="M955.63,1012.73a158.59,158.59,0,0,1-65-37.37,215,215,0,0,1,20-10.18c25.72-11.44,44.85-30.45,55.34-55,9.91-23.2,11.41-49.94,4.21-75.29-9.56-33.65-3.24-69,18.78-105a242.94,242.94,0,0,1,20.6-28.47l1.19.08A159.51,159.51,0,0,1,1077.28,721c-27.66,27-55.75,63.92-46.45,96.63,11.13,39.19,8.69,80.83-6.88,117.26A165.8,165.8,0,0,1,955.63,1012.73Z"/><path d="M1012.29,707.58a153.64,153.64,0,0,1,55,15c-12.35,12.67-22.24,25-29.47,36.78-13.5,22-17.77,42.14-12.71,59.95,10.75,37.87,8.4,78.09-6.62,113.26a159.29,159.29,0,0,1-27.61,43.61,161.9,161.9,0,0,1-36,30A152.35,152.35,0,0,1,901,976.55q6-3.13,12.16-5.89c27.14-12.06,47.34-32.16,58.43-58.12,10.45-24.47,12-52.63,4.46-79.29-9.08-32-3-65.71,18.13-100.27a233,233,0,0,1,18.15-25.4M1007,695.24a250.76,250.76,0,0,0-23.05,31.48C961,764.26,954.43,801.2,964.46,836.53c6.83,24,5.43,49.35-4,71.3-9.88,23.12-28,41.06-52.26,51.87A221.5,221.5,0,0,0,881,974.17a164.48,164.48,0,0,0,75.48,45c33.08-19.05,58.12-47.05,73-81.9,16.1-37.7,18.63-80.76,7.13-121.26-9.14-32.16,22.67-70.17,50.57-96.13a164.2,164.2,0,0,0-76-24.43c-1.42-.09-2.84-.17-4.26-.23Z"/><path class="cls-4" d="M558.42,1013.44A159.47,159.47,0,0,1,501,984.37c13.65-50.75,33.2-107.8,86.27-150.81,21.87-17.73,35.42-41.06,39.17-67.48A112.47,112.47,0,0,0,616,701.77a158,158,0,0,1,72.86,26.43,171.23,171.23,0,0,1-.13,46.73c-6,42.45-27.42,79.64-61.87,107.56C584.12,917.15,571.35,963.85,558.42,1013.44Z"/><path d="M625.69,709.13a152,152,0,0,1,57.58,22.54,164.9,164.9,0,0,1-.46,42.42C677,815,656.35,850.88,623.1,877.83c-20.38,16.52-36,37.4-47.87,63.84-9.15,20.46-15.15,41.82-21.05,64.28a153.66,153.66,0,0,1-46.39-23.87c6.36-23.28,14-47.68,25.63-71,14.64-29.47,33.47-53.3,57.58-72.83,23.07-18.7,37.36-43.35,41.33-71.3a117.4,117.4,0,0,0-6.64-57.79m-20.11-14.08.17.3c12.83,21.43,18,46.25,14.7,69.88-3.54,24.9-16.33,46.91-37,63.66-56.59,45.87-75.69,106.42-89.29,157.68a164.39,164.39,0,0,0,68.58,34.13l.8-3.05c12.92-49.6,25.12-96.45,67.13-130.5,35.64-28.88,57.79-67.4,64-111.37a177.36,177.36,0,0,0-.24-51,164.12,164.12,0,0,0-88.87-29.7Z"/></svg>