<svg id="图层_1" data-name="图层 1" xmlns="http://www.w3.org/2000/svg" xmlns:xlink="http://www.w3.org/1999/xlink" viewBox="0 0 1600 1600"><defs><style>.cls-1{fill:url(#未命名的渐变_705);}.cls-2{fill:#fff;}.cls-3{fill:url(#未命名的渐变_705-2);}.cls-4{fill:url(#未命名的渐变_698);}</style><linearGradient id="未命名的渐变_705" x1="7235.73" y1="914.87" x2="6944.13" y2="780.42" gradientTransform="matrix(-1, 0, 0, 1, 7695.74, 0)" gradientUnits="userSpaceOnUse"><stop offset="0" stop-color="#ffe515"/><stop offset="0.52" stop-color="#dfcace"/><stop offset="1" stop-color="#bce2e8"/></linearGradient><linearGradient id="未命名的渐变_705-2" x1="3594.05" y1="914.87" x2="3302.45" y2="780.42" gradientTransform="translate(-2454.06)" xlink:href="#未命名的渐变_705"/><linearGradient id="未命名的渐变_698" x1="800" y1="879.89" x2="800" y2="742.6" gradientUnits="userSpaceOnUse"><stop offset="0" stop-color="#ffe515"/><stop offset="0.5" stop-color="#dfcace"/><stop offset="1" stop-color="#bce2e8"/></linearGradient></defs><path class="cls-1" d="M496.7,952.9c-9.21,0-18.06-4-24.92-11.3-8.65-9.2-13.12-22.31-12.28-36l7.68-124.78c1.85-30.14,23.39-53.74,49-53.74a42.38,42.38,0,0,1,6.82.55l194.83,31.74c18.17,3,32.37,19.29,35.33,40.65l14.14,102.05c1.95,14.09-2.08,28.47-10.78,38.46-6.94,8-16.08,12.35-25.76,12.35Z"/><path d="M516.21,733.1a37.43,37.43,0,0,1,5.86.47l194.82,31.74a33.28,33.28,0,0,1,19.6,11.29,46.05,46.05,0,0,1,10.76,24.26l14.14,102c1.72,12.4-1.78,25-9.36,33.7-5.78,6.64-13.33,10.29-21.24,10.29H496.7c-7.54,0-14.84-3.34-20.55-9.41-7.52-8-11.4-19.48-10.66-31.5l7.68-124.78c1.66-27,20.56-48.11,43-48.11m0-12c-28.5,0-52.94,25.49-55,59.37l-7.68,124.79c-1.79,29,18.06,53.64,43.19,53.64H730.79c26.48,0,46.67-27.4,42.48-57.64l-14.13-102c-3.31-23.84-19.66-42.39-40.32-45.76L524,721.73a47.91,47.91,0,0,0-7.78-.63Z"/><path class="cls-2" d="M617.46,953.9a19.85,19.85,0,0,1-4.15-8.57L569.76,748.4a22,22,0,0,1,1.42-13.92l28.89,4.71,43.45,196.47a21.54,21.54,0,0,1-4.14,18.24Z"/><path d="M574.58,740.1l21.34,3.48,42.72,193.16a17,17,0,0,1-1.81,12.16H620a15.88,15.88,0,0,1-1.82-4.65L574.64,747.32a17.57,17.57,0,0,1-.06-7.22m-6-11.11a26.76,26.76,0,0,0-3.66,20.49l43.55,196.93a24.37,24.37,0,0,0,6.88,12.49h26.23c6-5.7,8.91-15.07,6.86-24.32L604.85,737.65a28.27,28.27,0,0,0-.81-2.88L568.54,729Z"/><path class="cls-2" d="M697.41,953.9a22.84,22.84,0,0,1-3.15-8.37L659.08,748.8l25,4.07,32.65,182.59c1.19,6.64,0,13.62-3.14,18.44Z"/><path d="M665.24,754.87l14.55,2.37,13.13,73.4,7.71,43.14,11.19,62.56a22.51,22.51,0,0,1-1.24,12.56H700.42a20.67,20.67,0,0,1-1.24-4.25L665.24,754.87m-11.63-12a33.31,33.31,0,0,0,.51,6.64l35.22,196.93a26.29,26.29,0,0,0,5.57,12.49h21.21c4.82-5.7,7.2-15.07,5.54-24.32L710.48,872l-7.72-43.14-14.37-80.37-34.78-5.67Z"/><path d="M516.21,733.1a37.43,37.43,0,0,1,5.86.47l194.82,31.74a33.28,33.28,0,0,1,19.6,11.29,46.05,46.05,0,0,1,10.76,24.26l14.14,102c1.72,12.4-1.78,25-9.36,33.7-5.78,6.64-13.33,10.29-21.24,10.29H496.7c-7.54,0-14.84-3.34-20.55-9.41-7.52-8-11.4-19.48-10.66-31.5l7.68-124.78c1.66-27,20.56-48.11,43-48.11m0-12c-28.5,0-52.94,25.49-55,59.37l-7.68,124.79c-1.79,29,18.06,53.64,43.19,53.64H730.79c26.48,0,46.67-27.4,42.48-57.64l-14.13-102c-3.31-23.84-19.66-42.39-40.32-45.76L524,721.73a47.91,47.91,0,0,0-7.78-.63Z"/><path class="cls-3" d="M869.21,952.9c-9.67,0-18.82-4.39-25.76-12.35-8.7-10-12.73-24.37-10.78-38.46L846.81,800c3-21.36,17.16-37.69,35.33-40.65L1077,727.65a42.38,42.38,0,0,1,6.82-.55c25.64,0,47.18,23.6,49,53.74l7.68,124.78c.84,13.67-3.63,26.78-12.28,36-6.86,7.29-15.71,11.3-24.92,11.3Z"/><path d="M1083.8,733.1c22.47,0,41.37,21.13,43,48.11L1134.51,906c.74,12-3.14,23.5-10.66,31.5-5.71,6.07-13,9.41-20.55,9.41H869.21c-7.91,0-15.46-3.65-21.24-10.29-7.58-8.7-11.08-21.3-9.36-33.7l14.14-102a46.05,46.05,0,0,1,10.76-24.26,33.28,33.28,0,0,1,19.6-11.29l194.82-31.74a37.43,37.43,0,0,1,5.86-.47h0m0-12a47.91,47.91,0,0,0-7.78.63L881.18,753.46c-20.66,3.37-37,21.92-40.32,45.76l-14.13,102c-4.19,30.24,16,57.64,42.48,57.64H1103.3c25.13,0,45-24.65,43.19-53.64l-7.68-124.79c-2.08-33.88-26.52-59.38-55-59.37Z"/><path class="cls-2" d="M960.62,953.9a21.54,21.54,0,0,1-4.14-18.24l43.45-196.47,28.89-4.71a22,22,0,0,1,1.42,13.92L986.69,945.33a19.85,19.85,0,0,1-4.15,8.57Z"/><path d="M1025.42,740.1a17.57,17.57,0,0,1-.06,7.22L981.81,944.25A15.88,15.88,0,0,1,980,948.9H963.17a17,17,0,0,1-1.81-12.16l42.72-193.16,21.34-3.48m6-11.11L996,734.77a28.27,28.27,0,0,0-.81,2.88L951.6,934.58c-2.05,9.25.89,18.62,6.86,24.32h26.23a24.37,24.37,0,0,0,6.88-12.49l43.55-196.93a26.76,26.76,0,0,0-3.66-20.49Z"/><path class="cls-2" d="M886.4,953.9c-3.1-4.82-4.33-11.8-3.14-18.44l32.65-182.59,25-4.07L905.74,945.53a22.84,22.84,0,0,1-3.15,8.37Z"/><path d="M934.76,754.87,900.82,944.65a20.67,20.67,0,0,1-1.24,4.25H889.42a22.51,22.51,0,0,1-1.24-12.56l11.19-62.56,7.71-43.14,13.13-73.4,14.55-2.37m11.63-12-34.78,5.67-14.37,80.37L889.52,872l-11.18,62.56c-1.66,9.25.72,18.62,5.54,24.32h21.21a26.29,26.29,0,0,0,5.57-12.49l35.22-196.93a33.31,33.31,0,0,0,.51-6.64Z"/><path d="M1083.8,733.1c22.47,0,41.37,21.13,43,48.11L1134.51,906c.74,12-3.14,23.5-10.66,31.5-5.71,6.07-13,9.41-20.55,9.41H869.21c-7.91,0-15.46-3.65-21.24-10.29-7.58-8.7-11.08-21.3-9.36-33.7l14.14-102a46.05,46.05,0,0,1,10.76-24.26,33.28,33.28,0,0,1,19.6-11.29l194.82-31.74a37.43,37.43,0,0,1,5.86-.47h0m0-12a47.91,47.91,0,0,0-7.78.63L881.18,753.46c-20.66,3.37-37,21.92-40.32,45.76l-14.13,102c-4.19,30.24,16,57.64,42.48,57.64H1103.3c25.13,0,45-24.65,43.19-53.64l-7.68-124.79c-2.08-33.88-26.52-59.38-55-59.37Z"/><path class="cls-4" d="M746.43,877.43A19.77,19.77,0,0,1,726.82,860l-2.5-21.13a19.76,19.76,0,0,1,19.61-22.08H856.07a19.76,19.76,0,0,1,19.61,22.08L873.18,860a19.77,19.77,0,0,1-19.61,17.43Z"/><path d="M856.07,822.79a13.75,13.75,0,0,1,13.65,15.37l-2.5,21.13a13.76,13.76,0,0,1-13.65,12.14H746.43a13.76,13.76,0,0,1-13.65-12.14l-2.5-21.13a13.75,13.75,0,0,1,13.65-15.37H856.07m0-12H743.93a25.76,25.76,0,0,0-25.57,28.78l2.5,21.13a25.76,25.76,0,0,0,25.57,22.73H853.57a25.76,25.76,0,0,0,25.57-22.73l2.5-21.13a25.76,25.76,0,0,0-25.57-28.78Z"/></svg>