<svg id="图层_1" data-name="图层 1" xmlns="http://www.w3.org/2000/svg" xmlns:xlink="http://www.w3.org/1999/xlink" viewBox="0 0 1600 1600"><defs><style>.cls-1{fill:#8f5546;}.cls-2{fill:#f3d0b2;}.cls-3{fill:#945848;}.cls-10,.cls-11,.cls-4,.cls-5,.cls-6,.cls-7,.cls-8,.cls-9{stroke:#000;stroke-miterlimit:10;stroke-width:14px;}.cls-4,.cls-8{stroke-linecap:round;}.cls-4{fill:url(#未命名的渐变_23);}.cls-5{fill:url(#未命名的渐变_23-2);}.cls-6{fill:url(#未命名的渐变_23-3);}.cls-7{fill:url(#未命名的渐变_23-4);}.cls-8{fill:url(#未命名的渐变_23-5);}.cls-9{fill:url(#未命名的渐变_23-6);}.cls-10{fill:url(#未命名的渐变_23-7);}.cls-11{fill:url(#未命名的渐变_23-8);}.cls-12{fill:url(#未命名的渐变_23-9);}</style><linearGradient id="未命名的渐变_23" x1="460.75" y1="756.16" x2="460.75" y2="501.7" gradientTransform="translate(-8.16 5.75) rotate(0.09)" gradientUnits="userSpaceOnUse"><stop offset="0" stop-color="#b747dd"/><stop offset="1" stop-color="#fbcd17"/></linearGradient><linearGradient id="未命名的渐变_23-2" x1="524.4" y1="627.67" x2="524.4" y2="445.3" gradientTransform="translate(993.47 -35.17) rotate(83.93)" xlink:href="#未命名的渐变_23"/><linearGradient id="未命名的渐变_23-3" x1="587.74" y1="570.96" x2="587.74" y2="366.61" gradientTransform="translate(495.88 -271.79) rotate(45.09)" xlink:href="#未命名的渐变_23"/><linearGradient id="未命名的渐变_23-4" x1="681.96" y1="541.59" x2="681.96" y2="298.08" xlink:href="#未命名的渐变_23"/><linearGradient id="未命名的渐变_23-5" x1="1157.63" y1="756.13" x2="1157.63" y2="501.67" xlink:href="#未命名的渐变_23"/><linearGradient id="未命名的渐变_23-6" x1="1093.97" y1="627.64" x2="1093.97" y2="445.28" gradientTransform="translate(53.93 -105.34) rotate(6.07)" xlink:href="#未命名的渐变_23"/><linearGradient id="未命名的渐变_23-7" x1="1030.62" y1="570.94" x2="1030.62" y2="366.59" gradientTransform="translate(626.06 -584.77) rotate(45.09)" xlink:href="#未命名的渐变_23"/><linearGradient id="未命名的渐变_23-8" x1="936.4" y1="541.58" x2="936.4" y2="298.07" xlink:href="#未命名的渐变_23"/><linearGradient id="未命名的渐变_23-9" x1="826.47" y1="529.77" x2="826.47" y2="225.74" xlink:href="#未命名的渐变_23"/></defs><circle class="cls-1" cx="1151.98" cy="834.23" r="105.6" transform="translate(144 1837.7) rotate(-80.78)"/><path d="M1152,738.63a95.6,95.6,0,1,1-95.6,95.6,95.71,95.71,0,0,1,95.6-95.6m0-20a115.6,115.6,0,1,0,115.6,115.6A115.59,115.59,0,0,0,1152,718.63Z"/><circle class="cls-2" cx="1151.98" cy="834.23" r="61.01" transform="translate(-252.48 1058.91) rotate(-45)"/><circle class="cls-1" cx="448.02" cy="834.23" r="105.6"/><path d="M448,738.63a95.6,95.6,0,1,1-95.6,95.6,95.7,95.7,0,0,1,95.6-95.6m0-20a115.6,115.6,0,1,0,115.6,115.6A115.6,115.6,0,0,0,448,718.63Z"/><circle class="cls-2" cx="448.02" cy="834.23" r="61.01" transform="translate(-458.67 561.14) rotate(-45)"/><path class="cls-3" d="M800,1090.12c-117,0-202.81-17.41-262.24-53.23-34.1-20.55-60.27-47.86-77.78-81.16-19-36.2-28.69-81-28.69-133.14a416.11,416.11,0,0,1,29-153.79,396.22,396.22,0,0,1,79.14-125.46,367.15,367.15,0,0,1,117.19-84.46,347.61,347.61,0,0,1,286.68,0,367.15,367.15,0,0,1,117.19,84.46,396.22,396.22,0,0,1,79.14,125.46,416.11,416.11,0,0,1,29,153.79c0,52.14-9.65,96.94-28.69,133.14-17.51,33.3-43.68,60.61-77.78,81.16C1002.81,1072.71,917,1090.12,800,1090.12Z"/><path d="M800,436a337.79,337.79,0,0,1,140,30.22,359.26,359.26,0,0,1,114.65,82.64,387.88,387.88,0,0,1,77.54,122.94,408,408,0,0,1,28.48,150.83c0,98-33.56,165.85-102.6,207.46-58.14,35-142.57,52.08-258.11,52.08s-200-17-258.11-52.08c-69-41.61-102.6-109.47-102.6-207.46a408,408,0,0,1,28.48-150.83,387.88,387.88,0,0,1,77.54-122.94A359.26,359.26,0,0,1,660,466.17,337.79,337.79,0,0,1,800,436m0-16c-208,0-376.71,180.27-376.71,402.63S592,1098.12,800,1098.12s376.71-53.17,376.71-275.54S1008.05,420,800,420Z"/><path class="cls-2" d="M1102.47,796.66c0,140.84-108.16,258.12-302.47,258.12-188.2,0-302.47-117.28-302.47-258.12,0-72.26,35.66-158.76,93-205.16C644.83,547.47,718.67,604,800,604c82,0,156.36-56.08,210.84-11.42C1067.36,638.91,1102.47,725,1102.47,796.66Z"/><path class="cls-4" d="M426.82,604s-10.18-84.6,41.18-94.33,90.4,32.8,90.4,32.8-5.86,228.91-147.06,219.86c-107.8-6.92-64.23-153.27-10-159.88,78.4-9.55,55.81,118.86,6.39,71"/><ellipse class="cls-5" cx="515.44" cy="543.02" rx="91.28" ry="81.25" transform="translate(-79.71 997.26) rotate(-83.85)"/><circle class="cls-6" cx="578.88" cy="475.41" r="102.18" transform="translate(-166.61 548.57) rotate(-45)"/><circle class="cls-7" cx="673.17" cy="426.6" r="121.75"/><path class="cls-8" d="M1173.44,605.06s10.43-84.57-40.91-94.46S1042,543.14,1042,543.14s5.19,228.92,146.42,220.28c107.82-6.6,64.67-153.08,10.45-159.84-78.36-9.78-56.15,118.69-6.59,71"/><ellipse class="cls-9" cx="1085" cy="543.85" rx="81.25" ry="91.28" transform="translate(-50.81 116.14) rotate(-5.99)"/><circle class="cls-10" cx="1021.76" cy="476.06" r="102.18" transform="translate(-37.36 861.93) rotate(-45)"/><circle class="cls-11" cx="927.61" cy="426.97" r="121.75"/><path class="cls-12" d="M889.43,536.86a81.13,81.13,0,0,1-40.33-10.43l-23.65-13.34,10.12,16.4L819,531.31a155,155,0,0,1-16.65.91,150.6,150.6,0,0,1-104.61-42.11A146.88,146.88,0,0,1,652,386.53c0-1.13,0-2.27,0-3.4.15-102.62,82.14-149.9,158.25-150.41h1.12c36.18,0,66.94,11.67,89,33.74,23.56,23.61,36,57.76,35.87,98.75,0,11.86-2.51,33.85-5.78,51.13a76.72,76.72,0,0,0,10.2,55.58c11,17.29,25.74,26.53,42.7,26.74-22,16.56-57.61,38.2-93.88,38.2Z"/><path d="M811.37,239.72c34.28,0,63.33,11,84,31.68,22.21,22.27,33.91,54.7,33.82,93.79,0,11.5-2.46,32.93-5.66,49.85a83.66,83.66,0,0,0,11.17,60.63c8.46,13.31,19,22.37,31.08,26.81-20.78,13.7-48.51,27.38-76.35,27.38a74.25,74.25,0,0,1-35.37-8.69c-.33-.27-.67-.53-1-.77-12.73-8.82-29-30.62-45.94-61.41a16,16,0,0,0-14-8.33,16.29,16.29,0,0,0-13.64,7.51,15.87,15.87,0,0,0-.89,15.37c9.91,20.9,21.46,38,34.51,51.28-3.6.27-7.2.4-10.78.4a143.63,143.63,0,0,1-99.77-40.16A140,140,0,0,1,659,386.38c0-1.07,0-2.16,0-3.24,0-23.38,4.49-44.73,13.24-63.46a127.31,127.31,0,0,1,34.19-44.17,150.12,150.12,0,0,1,48.48-26.65,177.36,177.36,0,0,1,55.39-9.14h1.07M1005.1,501.88h0M811.37,225.72H810.2c-80.51.54-165,51.09-165.2,157.4,0,1.19,0,2.37,0,3.55,1.81,85.92,73.3,152.55,157.28,152.55a160.05,160.05,0,0,0,17.41-1l24.42-2.67a2,2,0,0,0,1.52-3.07c-19.77-11.15-38.54-31.47-54.43-65a2,2,0,0,1,1.88-2.89,1.92,1.92,0,0,1,1.71,1.07c13.36,24.35,32,53.56,50.25,66.18a2.3,2.3,0,0,1,.59.62,87.77,87.77,0,0,0,43.77,11.33c48.14,0,94.27-35.36,113.11-51.79a2,2,0,0,0-1.31-3.54,2.35,2.35,0,0,0-.71.12,50.67,50.67,0,0,1-16.63,3c-17.56,0-29.51-11.11-37.37-23.5a70,70,0,0,1-9.23-50.52c3.3-17.46,5.87-39.95,5.9-52.41.2-85-52-139.51-131.83-139.51Z"/></svg>