<svg id="图层_1" data-name="图层 1" xmlns="http://www.w3.org/2000/svg" xmlns:xlink="http://www.w3.org/1999/xlink" viewBox="0 0 1600 1600"><defs><style>.cls-1{fill:#f85f56;}.cls-2{fill:url(#未命名的渐变_68);}.cls-3{fill:url(#未命名的渐变_68-2);}.cls-4{fill:#fff;}</style><linearGradient id="未命名的渐变_68" x1="475.71" y1="968.25" x2="716.07" y2="727.89" gradientTransform="matrix(-1, 0, 0, 1, 1608.16, 10.67)" gradientUnits="userSpaceOnUse"><stop offset="0" stop-color="#fff16a"/><stop offset="1" stop-color="#6afce5"/></linearGradient><linearGradient id="未命名的渐变_68-2" x1="792.02" y1="666.43" x2="1032.39" y2="426.06" gradientTransform="matrix(-1, 0.07, 0.07, 1, 1459.06, 252.91)" xlink:href="#未命名的渐变_68"/></defs><rect class="cls-1" x="720.52" y="833.91" width="164" height="52" transform="translate(-1.26 1.18) rotate(-0.08)"/><path d="M878.49,839.8l.06,40-152,.22-.06-40,152-.22m12-12-12,0-152,.22-12,0,0,12,.06,40v12l12,0,152-.22,12,0v-12l-.06-40,0-12Z"/><path class="cls-2" d="M1013.51,1029.6c-93.6,0-169.86-76.15-170-169.75s76-170.11,169.75-170.25h.25c93.6,0,169.86,76.15,170,169.75a170,170,0,0,1-169.75,170.25Z"/><path d="M1013.52,695.6a164,164,0,0,1,.24,328h-.25a164,164,0,0,1-.23-328h.24m0-12h-.26a176,176,0,0,0,.25,352h.26a176,176,0,0,0-.25-352Z"/><path class="cls-3" d="M586.31,1030.4A170,170,0,0,1,416.89,872.05c-6.43-93.51,64.42-174.83,157.94-181.26,3.93-.27,7.91-.4,11.84-.4A170,170,0,0,1,598.15,1030c-3.93.27-7.91.41-11.83.41Z"/><path d="M586.67,696.38A164,164,0,0,1,597.74,1024c-3.79.26-7.64.39-11.43.39a164,164,0,0,1-11.07-327.62c3.8-.26,7.64-.4,11.43-.4m0-12q-6.09,0-12.26.43a176,176,0,0,0,11.9,351.59q6.09,0,12.25-.42a176,176,0,0,0-11.89-351.6Z"/><path class="cls-4" d="M634.15,1023.61a177.31,177.31,0,0,1-73.32-83.17c-16.7-38.92-19.37-83.44-7.53-125.34,9.85-34.88-20.4-74.32-50-103a170.6,170.6,0,0,1,71.52-21.31l1.47-.09a259.36,259.36,0,0,1,22.19,30.53c23.61,38.53,30.42,76.33,20.24,112.35-7.61,27-6,55.4,4.59,80.06,11.18,26.07,31.56,46.26,58.92,58.38a230.3,230.3,0,0,1,21.88,11.11A169.69,169.69,0,0,1,634.15,1023.61Z"/><path d="M573.64,696.9a247.63,247.63,0,0,1,19.73,27.47c22.7,37,29.29,73.23,19.59,107.58-8,28.28-6.27,58.14,4.85,84,11.79,27.49,33.23,48.76,62,61.5,4.77,2.11,9.47,4.4,14.08,6.83A163.34,163.34,0,0,1,635,1017.1a173.26,173.26,0,0,1-39-32.33,170.79,170.79,0,0,1-29.66-46.69c-16.15-37.67-18.74-80.77-7.27-121.35,5.31-18.79.74-40.08-13.57-63.31-7.86-12.75-18.64-26.1-32.17-39.83a164.62,164.62,0,0,1,60.31-16.69M579,684.55c-1.51.07-3,.15-4.55.26a175.17,175.17,0,0,0-81,26.18c29.81,27.65,63.8,68.14,54.1,102.48-12.21,43.22-9.44,89.15,7.79,129.34,15.94,37.16,42.7,67,78,87.27a175.61,175.61,0,0,0,80.46-48.15,236.68,236.68,0,0,0-29.12-15.4c-25.95-11.5-45.26-30.6-55.83-55.26-10-23.4-11.58-50.41-4.33-76.06,10.65-37.7,3.61-77.1-20.91-117.11A266.62,266.62,0,0,0,579,684.55Z"/><path class="cls-4" d="M1057.67,1023.81c-13.88-53-27.52-102.86-73.2-139.77-36.87-29.8-59.8-69.53-66.32-114.91A183.06,183.06,0,0,1,918,719a169,169,0,0,1,78.74-28.54,119.59,119.59,0,0,0-11.25,69c4,28.08,18.47,52.87,41.75,71.68,56.87,45.94,77.81,107,92.47,161.22A170.47,170.47,0,0,1,1057.67,1023.81Z"/><path d="M987,697.75a124.57,124.57,0,0,0-7.45,62.57c4.25,29.61,19.44,55.71,43.92,75.49,25.83,20.88,46,46.35,61.75,77.88,12.53,25.13,20.8,51.38,27.66,76.4a164.56,164.56,0,0,1-50.94,26.25c-6.39-24.22-12.84-47.23-22.73-69.24-12.6-28.06-29.26-50.22-50.94-67.73-35.67-28.83-57.85-67.24-64.15-111.09a176.53,176.53,0,0,1-.51-45.83A163,163,0,0,1,987,697.75m20.18-14a175.1,175.1,0,0,0-94.76,31.82,189.45,189.45,0,0,0-.18,54.43c6.74,46.91,30.42,88,68.49,118.72,44.87,36.26,58,86.22,71.82,139.12.29,1.08.57,2.16.85,3.25a175.38,175.38,0,0,0,73.11-36.52c-14.58-54.66-35-119.23-95.5-168.07-22.08-17.84-35.77-41.31-39.58-67.86-3.61-25.2,1.92-51.69,15.57-74.58l.18-.31Z"/></svg>