<svg id="图层_1" data-name="图层 1" xmlns="http://www.w3.org/2000/svg" xmlns:xlink="http://www.w3.org/1999/xlink" viewBox="0 0 1600 1600"><defs><style>.cls-1,.cls-12,.cls-3,.cls-7{stroke:#000;}.cls-1,.cls-12,.cls-3,.cls-7,.cls-8,.cls-9{stroke-miterlimit:10;stroke-width:12px;}.cls-1{fill:url(#未命名的渐变_178);}.cls-2{fill:url(#未命名的渐变_13);}.cls-3{fill:url(#未命名的渐变_178-2);}.cls-4{fill:url(#未命名的渐变_13-2);}.cls-5{fill:url(#未命名的渐变_208);}.cls-6{fill:url(#未命名的渐变_124);}.cls-7,.cls-8,.cls-9{fill:none;}.cls-12,.cls-7,.cls-8,.cls-9{stroke-linecap:round;}.cls-8{stroke:#f262f1;}.cls-9{stroke:#ff0;}.cls-10{fill:url(#未命名的渐变_208-2);}.cls-11{fill:url(#未命名的渐变_124-2);}.cls-12{fill:url(#未命名的渐变_138);}</style><linearGradient id="未命名的渐变_178" x1="323.1" y1="866.83" x2="440.98" y2="866.83" gradientUnits="userSpaceOnUse"><stop offset="0.18" stop-color="#eae3f4"/><stop offset="0.63" stop-color="#241119"/></linearGradient><linearGradient id="未命名的渐变_13" x1="452.89" y1="802.24" x2="371.71" y2="849.11" gradientUnits="userSpaceOnUse"><stop offset="0.18" stop-color="#eae3f4"/><stop offset="0.79" stop-color="#4ca09d"/></linearGradient><linearGradient id="未命名的渐变_178-2" x1="-8661.04" y1="7994.72" x2="-8501.21" y2="7994.72" gradientTransform="matrix(-0.07, 0.85, 0.74, 0.53, -5314.64, 3877.72)" xlink:href="#未命名的渐变_178"/><linearGradient id="未命名的渐变_13-2" x1="-6646.07" y1="802.25" x2="-6727.25" y2="849.12" gradientTransform="matrix(-1, 0, 0, 1, -5581.46, 0)" xlink:href="#未命名的渐变_13"/><radialGradient id="未命名的渐变_208" cx="322.08" cy="860" fx="386.3347765496868" fy="767.7806205473762" r="182.95" gradientTransform="matrix(1.07, 0.2, -0.35, 1.62, 527.55, -598.85)" gradientUnits="userSpaceOnUse"><stop offset="0.36" stop-color="#effdff"/><stop offset="0.69" stop-color="#2afcbb"/></radialGradient><radialGradient id="未命名的渐变_124" cx="322.08" cy="860" fx="363.6137384000628" fy="800.3911196961085" r="118.26" gradientTransform="matrix(1.07, 0.2, -0.35, 1.62, 527.55, -598.85)" gradientUnits="userSpaceOnUse"><stop offset="0.36" stop-color="#eae3f4"/><stop offset="0.79" stop-color="#4060ff"/></radialGradient><radialGradient id="未命名的渐变_208-2" cx="669.77" fx="734.0274567864975" r="182.95" gradientTransform="matrix(1.07, 0.2, -0.35, 1.62, 534.9, -666.84)" xlink:href="#未命名的渐变_208"/><radialGradient id="未命名的渐变_124-2" cx="669.77" cy="860" fx="711.3064186368734" r="118.26" gradientTransform="matrix(1.07, 0.2, -0.35, 1.62, 534.9, -666.84)" xlink:href="#未命名的渐变_124"/><radialGradient id="未命名的渐变_138" cx="758.75" cy="850.13" fx="821.8191473022141" r="63.1" gradientUnits="userSpaceOnUse"><stop offset="0.18" stop-color="#eae3f4"/><stop offset="0.79" stop-color="#4060ff"/></radialGradient></defs><path class="cls-1" d="M359.3,928.59l-5.53-8.45a1.61,1.61,0,0,0-2.7.24l-4,11.84-4.95,11.62c-.3.71-1.59.59-1.69-.14l-1.56-11.48-.15-11.58c0-1.19-1.87-1.72-2.83-.81l-9.73,9.32c-1.08,1-3.16.36-3.07-1,.54-7.59,2.47-14.44,4.2-20.6,1.58-5.58,3.06-10.85,3.21-15.69,2.06-66.88,68-101.09,72.07-102.52L441,855.23c-.77.28-70.3-9.73-71.76,37.4-.24,7.9-2.22,14.93-4.14,21.73a91.08,91.08,0,0,0-3.15,13.81C361.8,929.28,360,929.58,359.3,928.59Z"/><path class="cls-2" d="M395.6,876.23a14.32,14.32,0,0,1-14-16.93l.49-6.34c.28-3.59.51-7.25.73-10.78.94-15.08,1.9-30.68,7.22-45.79a24.26,24.26,0,0,1,19.82-16.07l.26,0,19.81-1.73a13.74,13.74,0,0,1,1.44-.08,13.62,13.62,0,0,1,13.43,15.73l0,.21-13.59,59.63a22.84,22.84,0,0,1-18,18.72l-14.5,3.13a14.41,14.41,0,0,1-3.06.33Z"/><path d="M431.33,784.48a7.62,7.62,0,0,1,7.51,8.8l-13.59,59.64a16.79,16.79,0,0,1-13.28,14L397.39,870a8.45,8.45,0,0,1-1.79.19,8.33,8.33,0,0,1-8.09-10.1l.52-6.7c1.47-18.78,1.38-37.28,7.63-55a18.39,18.39,0,0,1,14.94-12.12l19.87-1.74a8.27,8.27,0,0,1,.86,0m0-12a19.53,19.53,0,0,0-2,.11l-19.75,1.72-.27,0-.26,0a30.26,30.26,0,0,0-24.69,20c-5.59,15.9-6.59,31.91-7.55,47.4-.22,3.52-.44,7.15-.72,10.7l-.47,6a20.31,20.31,0,0,0,24.33,23.23l14.5-3.14A28.86,28.86,0,0,0,437,855.21L450.54,796l.09-.4.06-.41a19.62,19.62,0,0,0-19.36-22.66Z"/><path class="cls-3" d="M1256.66,867.51l-9.51-13.28c-1.06-1.47-.73-3.24.52-2.74l14.39,5.78,14.21,4.55c.86.28.84-1.23,0-2l-13.45-11.52-13.71-10.09c-1.4-1-1.87-3.52-.7-3.77l11.91-2.65c1.32-.3.7-3.15-.9-4.2-9-5.91-17.33-9.67-24.78-13-6.75-3.07-13.13-6-18.88-9.94-79.4-55-128.47,19.81-130.52,23l32.19,41.26-16.1-20.63,16.08,20.66c.39-.61,39.84-60.16,95.79-21.4,9.38,6.5,17.89,10.36,26.11,14.09a152.43,152.43,0,0,1,16.65,8.38C1257.26,870.82,1257.78,869.06,1256.66,867.51Z"/><path class="cls-4" d="M1121.89,876.23a14.31,14.31,0,0,1-3.05-.33l-14.58-3.15a22.81,22.81,0,0,1-17.91-18.7l-13.58-59.63,0-.21a13.62,13.62,0,0,1,13.43-15.73,13.9,13.9,0,0,1,1.44.08l19.94,1.74.13,0a24.26,24.26,0,0,1,19.82,16.07c5.32,15.11,6.28,30.7,7.22,45.78.22,3.54.45,7.2.72,10.79l.5,6.34a14.32,14.32,0,0,1-14,16.93Z"/><path d="M1086.17,784.48a8.43,8.43,0,0,1,.86,0l19.87,1.74a18.39,18.39,0,0,1,14.94,12.12c6.25,17.76,6.16,36.26,7.62,55l.53,6.7a8.33,8.33,0,0,1-8.09,10.1,8.61,8.61,0,0,1-1.8-.19l-14.57-3.15a16.77,16.77,0,0,1-13.28-14l-13.59-59.64a7.62,7.62,0,0,1,7.51-8.8m0-12h0a19.62,19.62,0,0,0-19.36,22.66l.06.41.09.4,13.5,59.26a28.86,28.86,0,0,0,22.6,23.42l14.51,3.14a20.33,20.33,0,0,0,24.33-23.23l-.47-6c-.28-3.55-.5-7.18-.72-10.7-1-15.49-2-31.5-7.56-47.4a30.24,30.24,0,0,0-24.69-20l-.26,0-.26,0-19.76-1.72a19.19,19.19,0,0,0-2-.11Z"/><path class="cls-5" d="M543.45,977.41A120.88,120.88,0,0,1,422.53,856.5,114,114,0,0,1,536.44,742.59h64.35A114,114,0,0,1,714.7,856.5,121.06,121.06,0,0,1,593.78,977.41Z"/><path d="M600.79,748.59A107.91,107.91,0,0,1,708.7,856.5h0A114.92,114.92,0,0,1,593.78,971.41H543.45A114.88,114.88,0,0,1,428.53,856.5h0A107.91,107.91,0,0,1,536.44,748.59h64.35m0-12H536.44A119.91,119.91,0,0,0,416.53,856.5,126.88,126.88,0,0,0,543.45,983.41h50.33A126.92,126.92,0,0,0,720.7,856.5,119.91,119.91,0,0,0,600.79,736.59Z"/><path class="cls-6" d="M543.45,930.57a74,74,0,0,1-74.08-74.07,67.15,67.15,0,0,1,67.07-67.07h64.35a67.15,67.15,0,0,1,67.07,67.07,74.16,74.16,0,0,1-74.08,74.07Z"/><path d="M600.79,795.43a61.14,61.14,0,0,1,61.07,61.07,68.15,68.15,0,0,1-68.08,68.07H543.45a68.05,68.05,0,0,1-68.08-68.07,61.14,61.14,0,0,1,61.07-61.07h64.35m0-12H536.44a73.15,73.15,0,0,0-73.07,73.07,80,80,0,0,0,80.08,80.07h50.33a80.16,80.16,0,0,0,80.08-80.07,73.15,73.15,0,0,0-73.07-73.07Z"/><path class="cls-7" d="M503.42,836.71c0-22.47,14.72-40.76,32.82-40.76"/><path class="cls-7" d="M546,925.48a35.57,35.57,0,0,1-23-8.72c-11.38-9.54-18.17-25.4-18.17-42.42"/><line class="cls-8" x1="568.03" y1="821.97" x2="544.87" y2="899.26"/><line class="cls-8" x1="594.29" y1="844.62" x2="582.36" y2="884.43"/><line class="cls-9" x1="577.08" y1="818.35" x2="553.92" y2="895.64"/><line class="cls-9" x1="603.33" y1="841" x2="591.41" y2="880.81"/><path class="cls-10" d="M923.72,977.41A120.88,120.88,0,0,1,802.8,856.5,114,114,0,0,1,916.71,742.59h64.35A114,114,0,0,1,1095,856.5,121,121,0,0,1,974.05,977.41Z"/><path d="M981.06,748.59A107.91,107.91,0,0,1,1089,856.5h0A114.92,114.92,0,0,1,974.05,971.41H923.72A114.88,114.88,0,0,1,808.8,856.5h0A107.91,107.91,0,0,1,916.71,748.59h64.35m0-12H916.71A119.91,119.91,0,0,0,796.8,856.5,126.88,126.88,0,0,0,923.72,983.41h50.33A126.91,126.91,0,0,0,1101,856.5,119.91,119.91,0,0,0,981.06,736.59Z"/><path class="cls-11" d="M923.72,930.57a74,74,0,0,1-74.08-74.07,67.15,67.15,0,0,1,67.07-67.07h64.35a67.15,67.15,0,0,1,67.07,67.07,74.16,74.16,0,0,1-74.08,74.07Z"/><path d="M981.06,795.43a61.14,61.14,0,0,1,61.07,61.07,68.15,68.15,0,0,1-68.08,68.07H923.72a68.05,68.05,0,0,1-68.08-68.07,61.14,61.14,0,0,1,61.07-61.07h64.35m0-12H916.71a73.15,73.15,0,0,0-73.07,73.07,80,80,0,0,0,80.08,80.07h50.33a80.16,80.16,0,0,0,80.08-80.07,73.15,73.15,0,0,0-73.07-73.07Z"/><path class="cls-7" d="M883.69,836.71c0-22.47,14.72-40.76,32.82-40.76"/><path class="cls-7" d="M926.27,925.48a35.57,35.57,0,0,1-23-8.72c-11.38-9.54-18.17-25.4-18.17-42.42"/><line class="cls-8" x1="948.3" y1="821.97" x2="925.14" y2="899.26"/><line class="cls-8" x1="974.56" y1="844.62" x2="962.63" y2="884.43"/><line class="cls-9" x1="957.35" y1="818.35" x2="934.19" y2="895.64"/><line class="cls-9" x1="983.6" y1="841" x2="971.68" y2="880.81"/><path class="cls-12" d="M807.58,884.25h0a121.65,121.65,0,0,0-97.66,0h0a12.93,12.93,0,0,1-18.12-11.84V850.77A27.06,27.06,0,0,1,708,826l1.92-.84a121.65,121.65,0,0,1,97.66,0l1.91.84a27.06,27.06,0,0,1,16.21,24.79v21.64A12.93,12.93,0,0,1,807.58,884.25Z"/></svg>