<svg id="图层_1" data-name="图层 1" xmlns="http://www.w3.org/2000/svg" xmlns:xlink="http://www.w3.org/1999/xlink" viewBox="0 0 1600 1600"><defs><style>.cls-1{fill:none;stroke:#000;stroke-linecap:round;stroke-miterlimit:10;stroke-width:12px;}.cls-2{fill:url(#未命名的渐变_29);}.cls-3{fill:#fff;}.cls-4{fill:url(#未命名的渐变_29-2);}.cls-5{fill:url(#未命名的渐变_42);}</style><linearGradient id="未命名的渐变_29" x1="3955.73" y1="921.03" x2="3664.13" y2="786.58" gradientTransform="matrix(-1, 0, 0, 1, 4415.74, 0)" gradientUnits="userSpaceOnUse"><stop offset="0" stop-color="#1ae531"/><stop offset="0.52" stop-color="#dfcace"/><stop offset="1" stop-color="#bce2e8"/></linearGradient><linearGradient id="未命名的渐变_29-2" x1="3594.05" y1="921.03" x2="3302.45" y2="786.58" gradientTransform="translate(-2454.06)" xlink:href="#未命名的渐变_29"/><linearGradient id="未命名的渐变_42" x1="800" y1="883.58" x2="800" y2="822.95" gradientUnits="userSpaceOnUse"><stop offset="0" stop-color="#1ae531"/><stop offset="0.62" stop-color="#dde8de"/></linearGradient></defs><path class="cls-1" d="M419.27,714.94l20,89.63c4.38,11.84,11.09,21.16,19.15,26.57l20.33,13.66"/><path class="cls-1" d="M1180.73,714.94l-20,89.63c-4.38,11.84-11.09,21.16-19.15,26.57l-20.33,13.66"/><path class="cls-2" d="M496.7,959.06c-9.21,0-18.06-4-24.92-11.3-8.65-9.2-13.12-22.31-12.28-36L467.18,787c1.85-30.14,23.39-53.75,49-53.75a42.4,42.4,0,0,1,6.82.56l194.83,31.73c18.17,3,32.37,19.3,35.33,40.66l14.14,102c1.95,14.1-2.08,28.47-10.77,38.46-6.95,8-16.1,12.36-25.77,12.36Z"/><path d="M516.21,739.25a36.28,36.28,0,0,1,5.86.48l194.82,31.73a33.3,33.3,0,0,1,19.6,11.3A46.05,46.05,0,0,1,747.25,807l14.14,102.05c1.72,12.4-1.78,25-9.36,33.69-5.78,6.64-13.33,10.3-21.24,10.3H496.7c-7.54,0-14.84-3.34-20.55-9.41-7.52-8-11.4-19.48-10.66-31.5l7.68-124.79c1.66-27,20.56-48.11,43-48.11m0-12c-28.5,0-52.94,25.5-55,59.38l-7.68,124.78c-1.79,29,18.06,53.65,43.19,53.65H730.79c26.48,0,46.67-27.4,42.48-57.64l-14.13-102c-3.31-23.83-19.66-42.38-40.32-45.75L524,727.89a47.93,47.93,0,0,0-7.78-.64Z"/><path class="cls-3" d="M617.46,960.06a19.84,19.84,0,0,1-4.15-8.58L569.76,754.55a22,22,0,0,1,1.42-13.91l28.89,4.7,43.45,196.48a21.55,21.55,0,0,1-4.14,18.24Z"/><path d="M574.58,746.26l21.34,3.47,42.72,193.16a17,17,0,0,1-1.81,12.17H620a15.84,15.84,0,0,1-1.82-4.66L574.64,753.47a17.52,17.52,0,0,1-.06-7.21m-6-11.12a26.78,26.78,0,0,0-3.66,20.49l43.55,196.93a24.4,24.4,0,0,0,6.88,12.5h26.23c6-5.7,8.91-15.07,6.86-24.32L604.85,743.81a28.46,28.46,0,0,0-.81-2.89l-35.5-5.78Z"/><path class="cls-3" d="M697.41,960.06a22.82,22.82,0,0,1-3.15-8.38L659.08,755l25,4.07,32.65,182.59c1.19,6.64,0,13.62-3.14,18.44Z"/><path d="M665.24,761l14.55,2.36,13.13,73.41,7.71,43.14,11.19,62.56a22.52,22.52,0,0,1-1.24,12.56H700.42a20.76,20.76,0,0,1-1.24-4.26L665.24,761m-11.63-12a33.16,33.16,0,0,0,.51,6.63l35.22,196.93a26.33,26.33,0,0,0,5.57,12.5h21.21c4.83-5.7,7.2-15.07,5.54-24.32l-11.18-62.56L702.76,835l-14.37-80.38L653.61,749Z"/><path d="M516.21,739.25a36.28,36.28,0,0,1,5.86.48l194.82,31.73a33.3,33.3,0,0,1,19.6,11.3A46.05,46.05,0,0,1,747.25,807l14.14,102.05c1.72,12.4-1.78,25-9.36,33.69-5.78,6.64-13.33,10.3-21.24,10.3H496.7c-7.54,0-14.84-3.34-20.55-9.41-7.52-8-11.4-19.48-10.66-31.5l7.68-124.79c1.66-27,20.56-48.11,43-48.11m0-12c-28.5,0-52.94,25.5-55,59.38l-7.68,124.78c-1.79,29,18.06,53.65,43.19,53.65H730.79c26.48,0,46.67-27.4,42.48-57.64l-14.13-102c-3.31-23.83-19.66-42.38-40.32-45.75L524,727.89a47.93,47.93,0,0,0-7.78-.64Z"/><path class="cls-4" d="M869.21,959.06c-9.67,0-18.82-4.39-25.77-12.36-8.69-10-12.72-24.36-10.77-38.46l14.14-102c3-21.36,17.16-37.7,35.33-40.66L1077,733.81a42.4,42.4,0,0,1,6.82-.56c25.64,0,47.18,23.61,49,53.75l7.68,124.78c.84,13.67-3.63,26.78-12.28,36-6.86,7.29-15.71,11.3-24.92,11.3Z"/><path d="M1083.8,739.25c22.47,0,41.37,21.14,43,48.11l7.68,124.79c.74,12-3.14,23.5-10.66,31.5-5.71,6.07-13,9.41-20.55,9.41H869.21c-7.91,0-15.46-3.66-21.24-10.3-7.58-8.7-11.08-21.29-9.36-33.69L852.75,807a46.05,46.05,0,0,1,10.76-24.26,33.3,33.3,0,0,1,19.6-11.3l194.82-31.73a36.31,36.31,0,0,1,5.87-.48h0m0-12a47.93,47.93,0,0,0-7.78.64L881.18,759.62c-20.66,3.37-37,21.92-40.32,45.75l-14.13,102c-4.19,30.24,16,57.64,42.48,57.64H1103.3c25.13,0,45-24.65,43.19-53.65l-7.68-124.78c-2.08-33.88-26.52-59.38-55-59.38Z"/><path class="cls-3" d="M960.62,960.06a21.56,21.56,0,0,1-4.14-18.25l43.45-196.47,28.89-4.7a22,22,0,0,1,1.42,13.91L986.69,951.48a19.84,19.84,0,0,1-4.15,8.58Z"/><path d="M1025.42,746.26a17.52,17.52,0,0,1-.06,7.21L981.81,950.4a15.84,15.84,0,0,1-1.82,4.66H963.17a17,17,0,0,1-1.81-12.17l42.72-193.16,21.34-3.47m6-11.12L996,740.92a28.46,28.46,0,0,0-.81,2.89L951.6,940.74c-2.05,9.25.89,18.62,6.86,24.32h26.23a24.4,24.4,0,0,0,6.88-12.5l43.55-196.93a26.78,26.78,0,0,0-3.66-20.49Z"/><path class="cls-3" d="M886.4,960.06c-3.1-4.82-4.33-11.8-3.14-18.44L915.91,759l25-4.07L905.74,951.68a22.82,22.82,0,0,1-3.15,8.38Z"/><path d="M934.76,761,900.82,950.8a20.76,20.76,0,0,1-1.24,4.26H889.42a22.52,22.52,0,0,1-1.24-12.56l11.19-62.56,7.71-43.14,13.13-73.41L934.76,761m11.63-12-34.78,5.66L897.24,835l-7.72,43.14-11.18,62.56c-1.66,9.25.72,18.62,5.54,24.32h21.21a26.33,26.33,0,0,0,5.57-12.5l35.22-196.93a33.16,33.16,0,0,0,.51-6.63Z"/><path d="M1083.8,739.25c22.47,0,41.37,21.14,43,48.11l7.68,124.79c.74,12-3.14,23.5-10.66,31.5-5.71,6.07-13,9.41-20.55,9.41H869.21c-7.91,0-15.46-3.66-21.24-10.3-7.58-8.7-11.08-21.29-9.36-33.69L852.75,807a46.05,46.05,0,0,1,10.76-24.26,33.3,33.3,0,0,1,19.6-11.3l194.82-31.73a36.31,36.31,0,0,1,5.87-.48h0m0-12a47.93,47.93,0,0,0-7.78.64L881.18,759.62c-20.66,3.37-37,21.92-40.32,45.75l-14.13,102c-4.19,30.24,16,57.64,42.48,57.64H1103.3c25.13,0,45-24.65,43.19-53.65l-7.68-124.78c-2.08-33.88-26.52-59.38-55-59.38Z"/><path class="cls-5" d="M746.43,883.58a19.76,19.76,0,0,1-19.61-17.43L724.32,845A19.75,19.75,0,0,1,743.93,823H856.07A19.75,19.75,0,0,1,875.68,845l-2.5,21.13a19.76,19.76,0,0,1-19.61,17.43Z"/><path d="M856.07,829a13.75,13.75,0,0,1,13.65,15.37l-2.5,21.13a13.75,13.75,0,0,1-13.65,12.13H746.43a13.75,13.75,0,0,1-13.65-12.13l-2.5-21.13A13.75,13.75,0,0,1,743.93,829H856.07m0-12H743.93a25.76,25.76,0,0,0-25.57,28.78l2.5,21.13a25.75,25.75,0,0,0,25.57,22.72H853.57a25.75,25.75,0,0,0,25.57-22.72l2.5-21.13A25.76,25.76,0,0,0,856.07,817Z"/></svg>