<svg  xmlns="http://www.w3.org/2000/svg" xmlns:xlink="http://www.w3.org/1999/xlink" width="27px" height="20px"><path fill-rule="evenodd"  fill="rgb(27, 211, 213)" d="M22.373,1.673 C22.366,1.659 22.354,1.648 22.339,1.642 C20.627,0.869 18.820,0.318 16.964,0.2 C16.930,0.3 16.895,0.12 16.878,0.42 C16.632,0.482 16.409,0.933 16.209,1.395 C14.208,1.96 12.173,1.96 10.173,1.395 C9.971,0.932 9.745,0.480 9.493,0.42 C9.475,0.12 9.441,0.3 9.407,0.2 C7.550,0.317 5.744,0.868 4.32,1.642 C4.17,1.649 4.5,1.659 3.996,1.672 C0.574,6.706 0.363,11.615 0.96,16.464 C0.98,16.488 0.111,16.510 0.130,16.525 C2.123,17.978 4.353,19.87 6.723,19.805 C6.758,19.815 6.794,19.803 6.816,19.775 C7.325,19.93 7.776,18.371 8.165,17.616 C8.176,17.594 8.177,17.570 8.168,17.548 C8.159,17.526 8.141,17.509 8.119,17.501 C7.408,17.233 6.719,16.910 6.59,16.535 C6.35,16.520 6.19,16.496 6.18,16.468 C6.16,16.440 6.29,16.413 6.51,16.397 C6.190,16.295 6.326,16.189 6.460,16.81 C6.484,16.62 6.517,16.57 6.545,16.70 C10.867,18.11 15.545,18.11 19.815,16.70 C19.843,16.56 19.877,16.60 19.901,16.80 C20.35,16.189 20.172,16.294 20.311,16.397 C20.334,16.413 20.347,16.440 20.345,16.467 C20.344,16.495 20.328,16.520 20.304,16.535 C19.646,16.913 18.957,17.236 18.243,17.500 C18.221,17.508 18.203,17.526 18.195,17.548 C18.186,17.570 18.187,17.594 18.198,17.616 C18.594,18.366 19.44,19.87 19.546,19.774 C19.567,19.803 19.604,19.815 19.639,19.805 C22.14,19.89 24.247,17.980 26.243,16.525 C26.262,16.510 26.275,16.489 26.277,16.465 C26.828,10.859 25.355,5.990 22.373,1.673 ZM11.183,10.892 C11.183,12.336 10.132,13.511 8.810,13.511 C7.509,13.511 6.437,12.336 6.437,10.892 C6.437,9.449 7.488,8.273 8.810,8.273 C10.142,8.273 11.204,9.459 11.183,10.892 ZM19.957,10.892 C19.957,12.336 18.916,13.511 17.584,13.511 C16.283,13.511 15.211,12.336 15.211,10.892 C15.211,9.449 16.262,8.273 17.584,8.273 C18.916,8.273 19.978,9.459 19.957,10.892 Z"/></svg>