<svg  xmlns="http://www.w3.org/2000/svg" xmlns:xlink="http://www.w3.org/1999/xlink" width="27px" height="23px"><path fill-rule="evenodd"  fill="rgb(27, 211, 213)" d="M22.163,21.306 L26.69,2.936 C26.228,2.160 26.135,1.602 25.789,1.267 C25.444,0.931 24.989,0.870 24.421,1.82 L1.466,9.908 C0.953,10.104 0.606,10.324 0.418,10.572 C0.232,10.820 0.209,11.53 0.351,11.274 C0.492,11.496 0.776,11.667 1.201,11.792 L7.73,13.620 L20.701,5.57 C21.75,4.809 21.357,4.758 21.551,4.899 C21.676,4.988 21.641,5.120 21.445,5.296 L10.421,15.237 L9.995,21.279 C10.402,21.279 10.801,21.87 11.191,20.696 L14.60,17.939 L20.11,22.315 C21.146,22.949 21.863,22.614 22.165,21.306 L22.163,21.306 Z"/></svg>