<svg  xmlns="http://www.w3.org/2000/svg" xmlns:xlink="http://www.w3.org/1999/xlink" width="25px" height="25px"><path fill-rule="evenodd"  fill="rgb(27, 211, 213)" d="M24.777,12.547 C24.800,15.106 23.987,17.601 22.461,19.655 C20.991,21.707 18.906,23.237 16.507,24.25 C16.293,24.85 16.64,24.43 15.885,23.913 C15.755,23.790 15.686,23.616 15.694,23.438 L15.694,20.121 C15.764,19.291 15.464,18.473 14.874,17.885 C15.415,17.832 15.953,17.739 16.481,17.608 C16.999,17.469 17.497,17.260 17.959,16.986 C18.443,16.723 18.873,16.371 19.229,15.950 C19.619,15.457 19.913,14.894 20.93,14.292 C20.322,13.522 20.433,12.721 20.421,11.917 C20.448,10.715 19.998,9.550 19.168,8.679 C19.558,7.635 19.515,6.478 19.48,5.466 C18.616,5.388 18.172,5.448 17.777,5.639 C17.271,5.820 16.785,6.52 16.325,6.330 L15.729,6.701 C13.751,6.148 11.658,6.148 9.680,6.701 C9.507,6.580 9.291,6.451 9.15,6.278 C8.584,6.27 8.133,5.813 7.667,5.639 C7.248,5.426 6.774,5.351 6.310,5.423 C5.844,6.445 5.803,7.610 6.198,8.661 C5.380,9.547 4.934,10.713 4.953,11.917 C4.941,12.715 5.52,13.510 5.282,14.275 C5.469,14.874 5.762,15.436 6.146,15.933 C6.493,16.366 6.925,16.725 7.416,16.986 C7.884,17.248 8.380,17.456 8.894,17.608 C9.425,17.740 9.965,17.832 10.510,17.885 C10.57,18.310 9.780,18.889 9.732,19.508 C9.505,19.617 9.263,19.692 9.15,19.733 C8.730,19.786 8.440,19.812 8.151,19.810 C7.753,19.813 7.366,19.689 7.44,19.456 C6.686,19.197 6.391,18.861 6.180,18.472 C5.990,18.146 5.730,17.866 5.420,17.652 C5.189,17.474 4.924,17.345 4.642,17.271 L4.331,17.271 C4.175,17.262 4.19,17.286 3.873,17.341 C3.787,17.392 3.761,17.453 3.795,17.522 C3.836,17.599 3.885,17.672 3.942,17.738 C4.5,17.811 4.74,17.877 4.149,17.937 L4.262,18.6 C4.533,18.152 4.769,18.355 4.953,18.602 C5.146,18.848 5.311,19.114 5.446,19.396 L5.601,19.759 C5.724,20.148 5.966,20.490 6.292,20.735 C6.603,20.960 6.961,21.113 7.338,21.184 C7.696,21.258 8.61,21.296 8.427,21.296 C8.716,21.301 9.5,21.281 9.291,21.236 L9.654,21.175 L9.654,23.438 C9.657,23.619 9.582,23.792 9.447,23.913 C9.264,24.42 9.32,24.83 8.816,24.25 C6.424,23.227 4.351,21.687 2.896,19.629 C1.363,17.589 0.548,15.99 0.581,12.547 C0.568,10.423 1.129,8.335 2.205,6.502 C3.262,4.663 4.789,3.137 6.630,2.81 C8.463,1.6 10.553,0.445 12.679,0.457 C14.804,0.445 16.894,1.6 18.728,2.81 C20.568,3.137 22.96,4.663 23.152,6.502 C24.229,8.334 24.790,10.423 24.777,12.547 L24.777,12.547 Z"/></svg>