<svg  xmlns="http://www.w3.org/2000/svg" xmlns:xlink="http://www.w3.org/1999/xlink" width="120px" height="30px"><path fill-rule="evenodd"  fill="rgb(27, 211, 213)" d="M112.749,25.570 C107.786,27.399 101.292,25.415 98.819,19.585 C96.613,14.376 98.855,8.150 103.872,5.424 C110.899,1.612 119.581,6.235 119.990,14.14 C120.8,14.341 119.990,14.652 119.990,14.980 C119.990,19.930 117.286,23.915 112.749,25.570 ZM110.437,11.961 C109.316,11.358 108.159,11.496 107.92,12.134 C105.544,13.48 105.64,15.325 105.989,17.325 C106.576,18.585 107.643,19.223 109.31,19.171 C110.935,19.102 112.322,17.481 112.305,15.170 C112.234,13.945 111.807,12.686 110.437,11.961 ZM96.773,9.840 C96.755,9.943 96.720,10.47 96.649,10.237 C94.852,9.926 93.144,10.12 91.489,10.668 C89.194,11.565 87.842,13.979 88.322,16.343 C88.607,17.740 89.817,18.671 91.471,18.809 C93.19,18.947 94.460,18.568 95.866,17.998 C96.311,17.809 96.755,17.602 97.325,17.360 C97.200,18.757 97.93,20.34 96.987,21.327 C96.880,22.431 96.809,23.535 96.666,24.639 C96.631,24.881 96.471,25.243 96.257,25.329 C91.970,27.192 86.703,27.347 82.914,23.742 C80.352,21.293 79.569,18.240 79.872,14.876 C80.192,11.47 81.437,7.580 84.604,5.79 C88.269,2.181 92.450,1.681 96.933,2.906 C97.556,3.61 97.681,3.354 97.592,3.958 C97.289,5.907 97.40,7.873 96.773,9.840 ZM80.459,25.501 C79.391,25.639 78.359,25.760 77.328,25.898 C75.780,26.105 74.232,26.295 72.684,26.519 C72.115,26.605 71.812,26.485 71.688,25.881 C71.510,25.1 71.261,24.139 70.976,23.294 C70.905,23.69 70.549,22.810 70.318,22.793 C69.375,22.741 68.414,22.793 67.471,22.759 C67.9,22.741 66.867,22.931 66.778,23.345 C66.582,24.380 66.315,25.415 66.48,26.571 C64.358,26.416 62.739,26.278 61.138,26.122 C60.319,26.53 59.519,25.829 58.718,25.898 C58.238,25.933 57.758,25.984 57.277,26.53 L56.993,26.88 C56.32,26.226 55.89,26.381 54.128,26.536 C52.776,26.743 51.424,26.968 50.90,27.243 C49.556,27.347 49.271,27.192 48.987,26.778 C47.599,24.829 46.193,22.914 44.788,20.982 C44.628,20.758 44.468,20.568 44.130,20.154 C44.23,22.776 43.934,25.156 43.827,27.640 C41.425,27.726 39.95,27.830 36.604,27.934 C36.800,19.327 36.978,10.754 37.173,2.112 C39.913,2.250 42.529,2.371 45.268,2.509 C45.73,4.941 44.895,7.322 44.699,9.702 C44.752,9.719 44.806,9.737 44.859,9.754 C45.19,9.547 45.179,9.340 45.322,9.133 C46.763,6.977 48.222,4.820 49.645,2.647 C49.930,2.216 50.196,2.78 50.730,2.130 C53.345,2.354 55.978,2.527 58.754,2.734 C58.523,3.78 58.345,3.337 58.167,3.578 C55.765,6.804 53.363,10.47 50.926,13.255 C50.552,13.755 50.463,14.118 50.819,14.687 C52.776,17.929 54.697,21.206 56.619,24.484 C56.779,24.760 56.957,25.36 57.224,25.450 C57.384,25.1 57.473,24.725 57.562,24.449 C59.643,17.671 61.743,10.892 63.806,4.113 C64.2,3.440 64.287,3.182 65.52,3.165 C67.703,3.78 70.354,2.923 73.4,2.768 C73.449,2.734 73.769,2.734 73.930,3.286 C76.64,10.512 78.235,17.757 80.388,25.70 C80.423,25.174 80.423,25.277 80.459,25.501 ZM69.37,12.168 C68.966,12.168 68.895,12.168 68.823,12.168 C68.432,13.928 68.59,15.687 67.667,17.464 C68.557,17.464 69.357,17.464 70.229,17.446 C69.820,15.635 69.428,13.910 69.37,12.168 ZM20.940,26.841 C19.823,24.228 21.104,21.231 23.800,20.148 C26.496,19.65 29.587,20.307 30.704,22.920 C31.821,25.534 30.540,28.531 27.844,29.614 C25.148,30.697 22.57,29.455 20.940,26.841 ZM28.207,14.859 C29.7,14.859 29.648,15.480 29.648,16.256 C29.648,17.32 29.7,17.653 28.207,17.653 C27.406,17.653 26.766,17.32 26.766,16.256 C26.766,15.480 27.406,14.859 28.207,14.859 ZM26.997,7.770 C24.825,7.770 23.65,6.63 23.65,3.958 C23.65,1.853 24.825,0.146 26.997,0.146 C29.168,0.146 30.929,1.853 30.929,3.958 C30.929,6.63 29.168,7.770 26.997,7.770 ZM20.165,17.705 C17.650,17.705 15.611,15.728 15.611,13.289 C15.611,10.851 17.650,8.874 20.165,8.874 C22.681,8.874 24.720,10.851 24.720,13.289 C24.720,15.728 22.681,17.705 20.165,17.705 ZM18.208,6.580 C17.70,6.580 16.144,5.683 16.144,4.579 C16.144,3.475 17.70,2.578 18.208,2.578 C19.347,2.578 20.272,3.475 20.272,4.579 C20.272,5.683 19.347,6.580 18.208,6.580 ZM6.715,12.996 C3.11,12.996 0.8,10.85 0.8,6.494 C0.8,2.902 3.11,0.8 6.715,0.8 C10.420,0.8 13.422,2.902 13.422,6.494 C13.422,10.85 10.420,12.996 6.715,12.996 ZM7.961,14.963 C12.196,14.963 15.629,18.291 15.629,22.397 C15.629,26.502 12.196,29.831 7.961,29.831 C3.726,29.831 0.293,26.502 0.293,22.397 C0.293,18.291 3.726,14.963 7.961,14.963 Z"/></svg>