<svg  xmlns="http://www.w3.org/2000/svg" xmlns:xlink="http://www.w3.org/1999/xlink" width="24px" height="21px"><path fill-rule="evenodd"  fill="rgb(27, 211, 213)" d="M22.76,2.339 L23.990,0.408 L23.990,0.14 L17.361,0.14 L12.637,12.391 L7.263,0.14 L0.312,0.14 L0.312,0.408 L2.548,3.247 C2.766,3.457 2.879,3.765 2.851,4.74 L2.851,15.230 C2.919,15.633 2.798,16.43 2.529,16.335 L0.9,19.558 L0.9,19.974 L7.147,19.974 L7.147,19.551 L4.630,16.338 C4.359,16.46 4.228,15.640 4.284,15.233 L4.284,5.582 L10.551,19.980 L11.278,19.980 L16.668,5.582 L16.668,17.53 C16.668,17.354 16.668,17.417 16.480,17.617 L14.541,19.594 L14.541,20.16 L23.946,20.16 L23.946,19.594 L22.76,17.663 C21.913,17.531 21.829,17.312 21.864,17.99 L21.864,2.903 C21.829,2.690 21.913,2.470 22.76,2.339 Z"/></svg>