<svg  xmlns="http://www.w3.org/2000/svg" xmlns:xlink="http://www.w3.org/1999/xlink" width="27px" height="23px"><path fill-rule="evenodd"  fill="rgb(27, 211, 213)" d="M23.346,7.28 L23.346,6.284 C24.382,5.539 25.272,4.502 26.16,3.465 C25.126,3.917 24.90,4.210 23.54,4.356 C24.90,3.757 24.980,2.574 25.431,1.391 C24.395,1.989 23.359,2.428 22.164,2.734 C21.274,1.697 19.787,0.952 18.312,0.952 C15.350,0.952 13.119,3.332 13.119,6.443 C13.119,6.895 13.119,7.334 13.265,7.786 C8.962,7.494 5.110,5.260 2.427,1.843 C1.684,2.441 1.391,3.332 1.391,4.369 C1.391,6.297 2.281,8.79 3.769,9.129 C2.879,9.129 2.135,8.837 1.391,8.385 C1.391,11.57 3.171,13.437 5.548,13.876 C5.97,14.22 4.659,14.22 4.207,14.22 C3.915,14.22 3.609,14.22 3.171,13.876 C3.769,16.110 5.841,17.732 8.72,17.732 C6.292,19.221 4.61,20.112 1.537,20.112 C1.86,20.112 0.647,20.112 0.355,19.966 C2.733,21.601 5.402,22.492 8.364,22.492 C18.7,22.784 23.346,14.315 23.346,7.28 L23.346,7.28 Z"/></svg>