<svg id="图层_1" data-name="图层 1" xmlns="http://www.w3.org/2000/svg" xmlns:xlink="http://www.w3.org/1999/xlink" viewBox="0 0 1600 1600"><defs><style>.cls-1{fill:#65156b;}.cls-2{fill:#fff;}.cls-3{fill:#f3d0b2;}.cls-4{fill:#ded0b8;}.cls-5{fill:url(#未命名的渐变_32);}.cls-6{fill:#d4987b;}.cls-7{fill:#e73143;stroke:#000;stroke-miterlimit:10;stroke-width:6px;}.cls-8{fill:url(#未命名的渐变_242);}</style><linearGradient id="未命名的渐变_32" x1="1285.76" y1="4061" x2="1440.52" y2="4061" gradientTransform="translate(-2304.01 -1560.25) rotate(-30.83)" gradientUnits="userSpaceOnUse"><stop offset="0" stop-color="#7f47dd"/><stop offset="1" stop-color="#fbc14e"/></linearGradient><linearGradient id="未命名的渐变_242" x1="-3462.87" y1="-1914.14" x2="-3515.43" y2="-1832.99" gradientTransform="translate(911.47 5169.48) rotate(57.15)" gradientUnits="userSpaceOnUse"><stop offset="0" stop-color="#322caa"/><stop offset="0.76" stop-color="#e985c3"/></linearGradient></defs><path class="cls-1" d="M869,1095a16.78,16.78,0,0,1,6.17-22.9L905,1054.9a16.79,16.79,0,0,1,22.91,6.18l41.5,72.14-58.94,33.91Z"/><path d="M913.38,1058.67h0a10.81,10.81,0,0,1,9.35,5.4L961.25,1131l-48.54,27.93L874.2,1092a10.77,10.77,0,0,1,4-14.71L908,1060.11a10.55,10.55,0,0,1,5.35-1.44m0-12a22.78,22.78,0,0,0-11.34,3l-29.86,17.19A22.76,22.76,0,0,0,863.8,1098l44.5,77.34,69.34-39.9-44.5-77.34a22.77,22.77,0,0,0-19.76-11.41Z"/><path d="M978,1212.55l-2.27,1.3c-14.88,8.56-32.94,4.73-40.71-8.14-1.34-2.22-2.63-4.47-4-6.64l-13-20,58.94-33.92,10.8,21.32c1.17,2.32,2.47,4.56,3.72,6.84C998.59,1186.44,992.83,1204,978,1212.55Z"/><path class="cls-2" d="M919.31,1192.76a3.41,3.41,0,0,1-3.17-1.61l-12-23.21a3.14,3.14,0,0,1-.11-2.41,5.67,5.67,0,0,1,2.89-3.24c20.53-10.51,40.77-22.16,60.17-34.62a6,6,0,0,1,3.22-1,3.6,3.6,0,0,1,3.06,1.42l14,22.08c1,1.59.09,4-2.06,5.47l-24.55,16.27a109.29,109.29,0,0,1-11.6,6.68l-27.26,13.52A5.88,5.88,0,0,1,919.31,1192.76Z"/><path d="M970.39,1132.68h0m-.88.55L981,1151.32l-23.53,15.59a101,101,0,0,1-11,6.31l-26.17,13-9.85-19c20.12-10.34,40-21.75,59-34m.78-12.55a12,12,0,0,0-6.46,1.94q-29,18.62-59.66,34.33c-5.43,2.78-7.85,9-5.38,13.75l12,23.21a9.34,9.34,0,0,0,8.49,4.85,12,12,0,0,0,5.28-1.26L951.85,1184a115.25,115.25,0,0,0,12.24-7.06l24.55-16.27c4.91-3.25,6.6-9.31,3.81-13.69l-14-22.08a9.43,9.43,0,0,0-8.12-4.2Z"/><path class="cls-1" d="M629.84,1132.22l41.72-72a16.75,16.75,0,0,1,22.92-6.1l29.82,17.27a16.79,16.79,0,0,1,6.1,22.92l-41.72,72Z"/><path d="M686.1,1057.83a10.52,10.52,0,0,1,5.37,1.46l29.82,17.27a10.78,10.78,0,0,1,3.92,14.72l-38.71,66.83L638,1130l38.71-66.83a10.85,10.85,0,0,1,9.35-5.38h0m0-12a22.79,22.79,0,0,0-19.73,11.37l-44.73,77.2,69.23,40.11,44.72-77.21a22.76,22.76,0,0,0-8.28-31.12l-29.82-17.27a22.58,22.58,0,0,0-11.39-3.08Z"/><path class="cls-3" d="M641.15,1214a29.82,29.82,0,0,1-14.91-4.1l-2.26-1.31c-12.76-7.39-18.06-22.61-11.82-33.93.37-.67.74-1.34,1.12-2,.89-1.59,1.82-3.24,2.68-4.94l8.94-17.53L676.44,1180l-10.76,16.48c-1,1.59-2,3.21-2.95,4.79l-1.17,2C657.47,1210,649.84,1214,641.15,1214Z"/><path d="M626.55,1155.74l44.24,25.62-8.46,13c-1.08,1.66-2.07,3.32-3,4.92l-1.16,1.93c-3.35,5.52-9.71,8.81-17,8.81a25.82,25.82,0,0,1-12.91-3.56L626,1205.1c-10.89-6.31-15.51-19.11-10.31-28.54l1.09-2c.92-1.63,1.86-3.32,2.76-5.08l7-13.77m-3.29-11.16-10.86,21.3c-1.18,2.31-2.49,4.55-3.74,6.82-7.26,13.16-1.55,30.72,13.31,39.33l2.26,1.3a33.75,33.75,0,0,0,16.92,4.64c9.78,0,18.87-4.5,23.82-12.65,1.35-2.22,2.64-4.46,4.06-6.63l13.07-20-58.84-34.09Z"/><path class="cls-2" d="M678.08,1190.92a5.88,5.88,0,0,1-2.61-.64l-24.66-12.14a107.37,107.37,0,0,1-11.56-6.69l-23.59-15.83c-2.17-1.45-3.09-3.91-2.07-5.5l.12-.2L626,1127a3.67,3.67,0,0,1,3-1.27,5.94,5.94,0,0,1,3.23,1c19.37,12.52,39.58,24.23,60.07,34.8a5.68,5.68,0,0,1,2.88,3.24,3.2,3.2,0,0,1,0,2.26l-13.8,22.14-.1.2A3.4,3.4,0,0,1,678.08,1190.92Z"/><path d="M630,1132.35c18.9,12.18,38.59,23.58,58.55,33.92l-11.32,18.17-23.7-11.67a103.48,103.48,0,0,1-10.9-6.3l-22.75-15.27L630,1132.35m-1-12.66a9.41,9.41,0,0,0-8.1,4.17l-12.37,23c-2.8,4.38-1.12,10.46,3.79,13.72l23.61,15.85a112.54,112.54,0,0,0,12.23,7.07l24.63,12.13a11.88,11.88,0,0,0,5.29,1.27,9.36,9.36,0,0,0,8.48-4.82l13.83-22.19c2.49-4.77.08-11-5.34-13.77q-30.6-15.78-59.56-34.5a12,12,0,0,0-6.49-2Z"/><path class="cls-4" d="M924.38,1292.72a25.08,25.08,0,0,1-24.07-18.28L885.38,1221a25,25,0,0,1,17.35-30.8l91-25.42a25.36,25.36,0,0,1,6.74-.93,25.09,25.09,0,0,1,24.07,18.29l14.93,53.47a25,25,0,0,1-17.36,30.8l-91,25.41A24.84,24.84,0,0,1,924.38,1292.72Z"/><path d="M1000.47,1160.82v6a22.08,22.08,0,0,1,21.18,16.09l14.93,53.47a22,22,0,0,1-15.28,27.11l-91,25.41a22,22,0,0,1-27.11-15.27l-14.93-53.47a22,22,0,0,1,15.27-27.11l91-25.41a22.56,22.56,0,0,1,5.93-.82v-6m0,0a28.49,28.49,0,0,0-7.54,1l-91,25.42a28,28,0,0,0-19.44,34.49l14.93,53.47a28,28,0,0,0,34.5,19.44l91-25.41a28,28,0,0,0,19.44-34.5l-14.94-53.47a28,28,0,0,0-27-20.48Z"/><path class="cls-5" d="M901.82,1286.17a17,17,0,0,1-16.36-12.43l-14.52-52a17,17,0,0,1,11.8-20.94l106.41-29.72a17,17,0,0,1,21,11.8l14.51,52a17,17,0,0,1-11.8,20.94l-106.4,29.72A17.11,17.11,0,0,1,901.82,1286.17Z"/><path d="M993.74,1167.46v6a14,14,0,0,1,13.47,10.24l14.51,52a14,14,0,0,1-9.71,17.25L905.6,1282.65a14.3,14.3,0,0,1-3.78.52,14,14,0,0,1-13.47-10.24l-14.52-52a14,14,0,0,1,9.72-17.25L990,1174a14.3,14.3,0,0,1,3.78-.52v-6m0,0a20.14,20.14,0,0,0-5.4.74l-106.4,29.72a20,20,0,0,0-13.89,24.64l14.52,52a20,20,0,0,0,24.64,13.89l106.41-29.72a20,20,0,0,0,13.88-24.64l-14.51-52a20,20,0,0,0-19.25-14.63Z"/><path d="M977.83,1201.86h0a1.44,1.44,0,0,0-.85-.84,1.42,1.42,0,0,0-1.19.08l-22.55,12.29-.11.07a1.44,1.44,0,0,0-.59,1.59l6.68,23.91a5.78,5.78,0,1,0,4,3.59h0L959.7,1230l19.88-11.09,2.19,7.81a5.78,5.78,0,1,0,4.12,4l-8-28.73Zm.81,13.78-19.46,11.83-.79-2.47,19.22-12.56Z"/><path class="cls-6" d="M858,1328.29A26.23,26.23,0,0,1,854,1328c-5.59-.86-10.07-3.63-15.5-7.82a60.78,60.78,0,0,0-38-12.77c-1.4,0-2.82,0-4.24.12a65.82,65.82,0,0,0-28.74,8.81c-.24.14-.48.26-.73.39a15.24,15.24,0,0,0-4.63,3.38c-4.35,5-9.67,7.56-15.82,7.56A27.94,27.94,0,0,1,733,1324c-17.14-9.42-28.93-19.62-37.12-32.12-5.44-8.32-9.24-18-12.31-31.45-4.28-18.72-8.55-102.76,25-162.53,10-1.28,53.06-2.63,101.09-2.63,56.39,0,78.24,1.81,83,3,3.5,4.19,11.88,21.86,18.5,49.81,8,33.67,10.25,68.87,6.38,99.13-3.52,27.49-11.48,45.76-25.84,59.23-2.63,2.47-5.61,5.13-9.38,8.38-2.58,2.23-5.13,4.32-7.82,6.53l-2,1.65a22,22,0,0,1-14.41,5.32Z"/><path d="M809.64,1101.22c49.55,0,72.11,1.4,79.45,2.47,3.33,5.4,10.53,21.2,16.61,47.59,5.27,22.92,10.57,58,5.83,95.14-3.33,26-10.73,43.16-24,55.61-2.56,2.41-5.48,5-9.19,8.22-2.52,2.17-5,4.24-7.69,6.42l-2,1.66a15.88,15.88,0,0,1-10.59,4,20.68,20.68,0,0,1-3.17-.25c-4.31-.66-8.07-3-12.75-6.64a66.68,66.68,0,0,0-41.69-14c-1.52,0-3.06,0-4.59.13a71.79,71.79,0,0,0-31.32,9.57l-.59.31a20.81,20.81,0,0,0-6.38,4.76c-3.2,3.7-6.89,5.49-11.28,5.49a22,22,0,0,1-10.41-3c-16.24-8.92-27.36-18.5-35-30.15-5-7.69-8.58-16.79-11.48-29.49-2-8.72-4.17-34-1.52-64.82,2.15-24.92,8.15-60.33,24.43-90.73,13.53-1.14,53.9-2.28,97.35-2.28m0-12c-50.28,0-103.92,1.53-105,3.45-36.19,62.08-31.35,149.65-26.92,169,2.7,11.8,6.4,23.09,13.14,33.39,9.92,15.15,23.79,25.6,39.25,34.1a34,34,0,0,0,16.19,4.43c7.29,0,14.48-2.85,20.35-9.64a13.62,13.62,0,0,1,3.77-2.45,60.18,60.18,0,0,1,26.15-8.06c1.31-.07,2.6-.11,3.89-.11a55,55,0,0,1,34.36,11.52c5.67,4.38,11.19,7.91,18.26,9a33,33,0,0,0,5,.39,27.93,27.93,0,0,0,18.22-6.69c3.36-2.77,6.63-5.42,9.93-8.27s6.49-5.66,9.57-8.55c18.12-17,24.68-39.34,27.68-62.84,9.26-72.43-17.41-146-27.46-154.84-4.71-2.81-44.35-3.88-86.33-3.88Z"/><polygon class="cls-7" points="810.68 1119.21 800 1119.19 789.31 1119.18 775.13 1242.52 799.79 1262.56 824.5 1242.6 810.68 1119.21"/><path class="cls-7" d="M800,1128.85a191.65,191.65,0,0,1-67.1-12.23l-.4-.14,7-18.72.39.14a171.67,171.67,0,0,0,120.58,0l7,18.73A191.54,191.54,0,0,1,800,1128.85Z"/><path class="cls-1" d="M707.42,1305.73a80.11,80.11,0,0,1-11.58-13.9c-5.44-8.32-9.24-18-12.31-31.45-4-17.69-8.31-97,21.69-156.28l51.7,20.15c-.08,11.67-.82,46.94-6.34,83.5C742.38,1262,727.5,1295.71,707.42,1305.73Z"/><path d="M708.2,1111.7l42.67,16.64a617.67,617.67,0,0,1-6.25,78.65c-7.25,47.94-20,79.78-36.22,91.18a73.15,73.15,0,0,1-7.53-9.63c-5-7.69-8.58-16.79-11.49-29.49-3.82-16.75-7.84-90.14,18.82-147.35m-5.79-15.13c-33.79,61.79-29.07,146.15-24.72,165.15,2.69,11.8,6.39,23.09,13.14,33.39a87.82,87.82,0,0,0,15.37,17.66c58.58-21.21,56.73-192.61,56.73-192.61l-60.52-23.59Z"/><path d="M705.22,1104.1l15.34,6-5.69,62.47-.51,5.67,5.63.81,18.21,2.63-27.29,37.92-1.77,2.45.92,2.88,18.53,58.15c-6.23,11.14-13.33,18.75-21.17,22.67a79.6,79.6,0,0,1-11.57-13.9c-5.45-8.32-9.25-18-12.32-31.45-2-8.75-4.26-34.06-1.8-64.71,2-24.83,7.71-60.35,23.49-91.57m-2.81-7.53c-33.79,61.79-29.07,146.15-24.72,165.15,2.69,11.8,6.39,23.09,13.14,33.39a87.82,87.82,0,0,0,15.37,17.66c12-4.34,21.43-15,28.88-29.1l-19.3-60.58,33.06-46-28-4,6.1-67-24.54-9.56Z"/><path class="cls-1" d="M892.34,1306c-20.07-10.08-34.86-43.89-42.9-98.24-5.4-36.57-6-71.73-6.08-83.38l51.76-20C925,1163.8,920.45,1243,916.35,1260.72c-3.11,13.43-6.93,23.11-12.4,31.41A80.18,80.18,0,0,1,892.34,1306Z"/><path d="M892.12,1112c26.5,57.28,22.27,130.67,18.39,147.4-2.94,12.69-6.51,21.78-11.57,29.46a72.56,72.56,0,0,1-7.56,9.61c-16.21-11.45-28.84-43.33-36-91.29-4.84-32.65-5.83-64.29-6-78.67L892.12,1112m5.84-15.12-60.59,23.41s-2.35,171.4,56.17,192.79A88.4,88.4,0,0,0,909,1295.43c6.78-10.28,10.51-21.56,13.24-33.35,4.4-19,9.37-103.34-24.24-165.23Z"/><path d="M895.12,1104.38c15.7,31.27,21.31,66.8,23.23,91.64,2.37,30.65,0,56-2,64.7-3.11,13.42-6.93,23.11-12.4,31.41A80.56,80.56,0,0,1,892.34,1306c-7.83-4-14.92-11.57-21.11-22.74l18.7-58.09.93-2.87-1.76-2.46-27.18-38,18.21-2.57,5.64-.8-.5-5.67-5.51-62.48,15.36-5.94m2.84-7.53-24.57,9.5,5.9,67-28,4,32.93,46-19.48,60.53c7.41,14.17,16.83,24.81,28.8,29.19A88.4,88.4,0,0,0,909,1295.43c6.78-10.28,10.51-21.56,13.24-33.35,4.4-19,9.37-103.34-24.24-165.23Z"/><path class="cls-2" d="M747.4,1137.78a16.49,16.49,0,0,1-7-1.52c-3.36-1.61-7.11-3.24-11.09-5-16.09-7-36-15.69-42.5-28,0-13.39,1.57-26.89,3.56-31,6.86,1,28.52,8.87,47.79,15.87,15.42,5.6,31.37,11.39,45.69,16a3.76,3.76,0,0,1,1.51.84l-.19.16-.3.25L756.56,1135A15.41,15.41,0,0,1,747.4,1137.78Z"/><path d="M695.88,1074.71h0m-1.32,4.76c9.56,2.74,27.57,9.28,41.52,14.34,12.88,4.68,26.12,9.49,38.51,13.66l-22,23a10,10,0,0,1-5.22,1.33,10.57,10.57,0,0,1-4.45-.93c-3.46-1.65-7.26-3.31-11.28-5.06-13.88-6.06-32.57-14.21-38.89-24.08a146.49,146.49,0,0,1,1.78-22.24m-5.43-13.28a4.44,4.44,0,0,0-1,.1c-7.69,1.94-7.36,38.43-7.36,38.43,8.35,18.3,39.18,28.45,57,37a22.43,22.43,0,0,0,9.63,2.11,21.18,21.18,0,0,0,13.2-4.31l28.3-29.6c4.47-3.61,2.8-9.42-3.24-11.37-36.75-11.92-86.67-32.31-96.53-32.31Z"/><path class="cls-2" d="M852.55,1137.93a15.33,15.33,0,0,1-9.2-2.8l-28.19-29.64-.3-.24-.18-.17a3.78,3.78,0,0,1,1.51-.83c14.33-4.6,30.3-10.34,45.73-15.9,19.29-6.94,41-14.74,47.84-15.73,2,4.13,3.52,17.63,3.47,31-6.54,12.26-26.47,20.88-42.58,27.85-4,1.72-7.74,3.35-11.11,4.94a16.37,16.37,0,0,1-7,1.5Z"/><path d="M911.15,1078.51h0m-5.65,1.27a147.28,147.28,0,0,1,1.73,22.25c-6.36,9.85-25.07,17.94-39,24-4,1.75-7.84,3.39-11.29,5a10.5,10.5,0,0,1-4.43.92,10,10,0,0,1-5.25-1.35l-21.9-23c12.4-4.14,25.66-8.91,38.55-13.55,14-5,32-11.51,41.55-14.22m5.46-13.26c-9.91,0-59.85,20.22-96.61,32-6,1.94-7.73,7.74-3.27,11.36l28.21,29.68a21.2,21.2,0,0,0,13.26,4.35,22.58,22.58,0,0,0,9.57-2.07c17.83-8.46,48.69-18.52,57.1-36.8,0,0,.43-36.48-7.25-38.44a4.15,4.15,0,0,0-1-.1Z"/><path class="cls-8" d="M550.32,1256.06a5.76,5.76,0,0,1-3.27-10.5l78.51-55.83a9.94,9.94,0,0,1,5.66-1.75,10.08,10.08,0,0,1,5.23,18.7l-83.12,48.53A5.84,5.84,0,0,1,550.32,1256.06Z"/><path d="M631.22,1190.48a7.58,7.58,0,0,1,4,14l-83.12,48.53,0,0,0,0a3.26,3.26,0,0,1-3.53-5.47l0,0,0,0L627,1191.79a7.51,7.51,0,0,1,4.25-1.31m0-5a12.57,12.57,0,0,0-7.11,2.21l-78.47,55.82a8.25,8.25,0,0,0,9,13.86l83.15-48.55a12.58,12.58,0,0,0-6.52-23.34Z"/></svg>