<svg id="图层_1" data-name="图层 1" xmlns="http://www.w3.org/2000/svg" xmlns:xlink="http://www.w3.org/1999/xlink" viewBox="0 0 1600 1600"><defs><style>.cls-1{fill:#00466f;}.cls-2{fill:#f3d0b2;}.cls-10,.cls-3{fill:#fff;}.cls-4{fill:#d4987b;}.cls-10,.cls-5,.cls-6,.cls-9{stroke:#000;stroke-miterlimit:10;}.cls-5,.cls-6{stroke-linecap:round;stroke-width:8px;}.cls-5{fill:url(#未命名的渐变_23);}.cls-6{fill:url(#未命名的渐变_23-2);}.cls-7{fill:url(#未命名的渐变_242);}.cls-8{fill:#543229;}.cls-9{fill:#9cd41a;}.cls-10,.cls-9{stroke-width:4px;}</style><linearGradient id="未命名的渐变_23" x1="839.57" y1="1227.53" x2="760.26" y2="1148.22" gradientUnits="userSpaceOnUse"><stop offset="0" stop-color="#b747dd"/><stop offset="1" stop-color="#fbcd17"/></linearGradient><linearGradient id="未命名的渐变_23-2" x1="836.73" y1="1147.45" x2="763.29" y2="1074" xlink:href="#未命名的渐变_23"/><linearGradient id="未命名的渐变_242" x1="-291.78" y1="-339.07" x2="-344.35" y2="-257.92" gradientTransform="matrix(-0.54, 0.84, 0.84, 0.54, 1085.32, 1647.55)" gradientUnits="userSpaceOnUse"><stop offset="0" stop-color="#322caa"/><stop offset="0.76" stop-color="#e985c3"/></linearGradient></defs><path class="cls-1" d="M869,1095a16.78,16.78,0,0,1,6.17-22.9L905,1054.9a16.79,16.79,0,0,1,22.91,6.18l41.5,72.14-58.94,33.91Z"/><path d="M913.38,1058.67h0a10.81,10.81,0,0,1,9.35,5.4L961.25,1131l-48.54,27.93L874.2,1092a10.77,10.77,0,0,1,4-14.71L908,1060.11a10.55,10.55,0,0,1,5.35-1.44m0-12a22.78,22.78,0,0,0-11.34,3l-29.86,17.19A22.76,22.76,0,0,0,863.8,1098l44.5,77.34,69.34-39.9-44.5-77.34a22.77,22.77,0,0,0-19.76-11.41Z"/><path class="cls-2" d="M958.85,1214.43c-8.73,0-16.38-4-20.46-10.78l-1.17-2c-.93-1.58-1.9-3.2-2.94-4.8l-10.71-16.51,51.63-29.71,8.89,17.56c.86,1.69,1.78,3.34,2.66,4.94.38.67.75,1.34,1.12,2,6.21,11.34.86,26.54-11.92,33.9l-2.26,1.3A29.87,29.87,0,0,1,958.85,1214.43Z"/><path d="M973.54,1156.24l7,13.8c.9,1.77,1.84,3.45,2.75,5.09l1.09,2c5.17,9.44.51,22.23-10.4,28.51l-2.27,1.3a25.75,25.75,0,0,1-12.84,3.52c-7.32,0-13.69-3.31-17-8.85-.39-.65-.78-1.29-1.16-1.94-1-1.6-1.94-3.27-3-4.93l-8.42-13,44.32-25.5m3.32-11.14L917.92,1179l13,20c1.41,2.17,2.7,4.42,4,6.64,4.94,8.19,14.06,12.72,23.88,12.72a33.76,33.76,0,0,0,16.83-4.58l2.27-1.3c14.88-8.57,20.64-26.11,13.43-39.29-1.25-2.28-2.55-4.52-3.72-6.84l-10.8-21.32Z"/><path class="cls-3" d="M919.31,1192.76a3.42,3.42,0,0,1-3.17-1.61l-12-23.21a3.14,3.14,0,0,1-.11-2.41,5.67,5.67,0,0,1,2.89-3.24c20.52-10.51,40.76-22.16,60.17-34.62a6,6,0,0,1,3.22-1,3.6,3.6,0,0,1,3.06,1.42l14,22.08c1,1.59.09,4-2.06,5.47l-24.55,16.27a109.29,109.29,0,0,1-11.6,6.68l-27.26,13.52A5.88,5.88,0,0,1,919.31,1192.76Z"/><path d="M970.39,1132.68h0m-.88.55L981,1151.32l-23.53,15.59a102.76,102.76,0,0,1-11,6.32l-26.17,13-9.85-19c20.12-10.34,40-21.75,59-34m.78-12.55a12,12,0,0,0-6.46,1.94h0q-29,18.62-59.66,34.33c-5.43,2.78-7.85,9-5.38,13.75l12,23.21a9.34,9.34,0,0,0,8.49,4.85,12,12,0,0,0,5.28-1.26L951.85,1184a115.25,115.25,0,0,0,12.24-7.06l24.55-16.27c4.91-3.25,6.6-9.31,3.81-13.69l-14-22.08a9.43,9.43,0,0,0-8.12-4.2Z"/><path class="cls-1" d="M629.84,1132.22l41.72-72a16.75,16.75,0,0,1,22.92-6.1l29.82,17.27a16.76,16.76,0,0,1,6.1,22.92l-41.72,72Z"/><path d="M686.1,1057.83h0a10.52,10.52,0,0,1,5.37,1.46l29.82,17.27a10.78,10.78,0,0,1,3.92,14.72l-38.71,66.83L638,1130l38.71-66.83a10.85,10.85,0,0,1,9.35-5.38m0-12a22.77,22.77,0,0,0-19.73,11.37l-44.73,77.2,69.23,40.11,44.72-77.21a22.76,22.76,0,0,0-8.28-31.12l-29.82-17.27a22.58,22.58,0,0,0-11.39-3.08Z"/><path class="cls-2" d="M641.15,1214a29.82,29.82,0,0,1-14.91-4.1l-2.26-1.31c-12.76-7.39-18.06-22.61-11.82-33.93l1.12-2c.89-1.59,1.82-3.24,2.68-4.94l8.94-17.53L676.44,1180l-10.76,16.48c-1,1.59-2,3.21-2.94,4.77l-1.18,2C657.47,1210,649.84,1214,641.15,1214Z"/><path d="M626.55,1155.74l44.24,25.62-8.46,13c-1.08,1.66-2.07,3.32-3,4.92l-1.16,1.93c-3.35,5.52-9.71,8.81-17,8.81a25.82,25.82,0,0,1-12.91-3.56L626,1205.1c-10.89-6.31-15.51-19.11-10.31-28.54l1.09-2c.92-1.63,1.86-3.31,2.76-5.08l7-13.77m-3.29-11.16-10.86,21.3c-1.18,2.31-2.49,4.55-3.74,6.82-7.26,13.16-1.55,30.72,13.31,39.33l2.26,1.3a33.75,33.75,0,0,0,16.92,4.64c9.78,0,18.87-4.5,23.82-12.65,1.35-2.22,2.64-4.46,4.06-6.63l13.07-20-58.84-34.09Z"/><path class="cls-3" d="M678.08,1190.92a5.88,5.88,0,0,1-2.61-.64l-24.66-12.14a108.35,108.35,0,0,1-11.56-6.69l-23.59-15.83c-2.17-1.45-3.09-3.91-2.07-5.5l.12-.2L626,1127a3.67,3.67,0,0,1,3-1.27,5.94,5.94,0,0,1,3.23,1c19.37,12.52,39.58,24.23,60.07,34.8a5.73,5.73,0,0,1,2.89,3.24,3.27,3.27,0,0,1-.05,2.26l-13.8,22.14-.1.2A3.4,3.4,0,0,1,678.08,1190.92Z"/><path d="M630,1132.35c18.9,12.18,38.59,23.58,58.55,33.92l-11.32,18.17-23.7-11.67a103.48,103.48,0,0,1-10.9-6.3l-22.75-15.27L630,1132.35m-1-12.66a9.41,9.41,0,0,0-8.1,4.17l-12.37,23c-2.8,4.38-1.12,10.46,3.79,13.72l23.61,15.85a112.54,112.54,0,0,0,12.23,7.07l24.63,12.13a11.88,11.88,0,0,0,5.29,1.27,9.36,9.36,0,0,0,8.48-4.82l13.83-22.19c2.49-4.77.08-11-5.34-13.77q-30.6-15.78-59.56-34.5a12,12,0,0,0-6.49-2Z"/><path class="cls-4" d="M858,1328.29A26.23,26.23,0,0,1,854,1328c-5.59-.86-10.07-3.63-15.5-7.82a60.84,60.84,0,0,0-38-12.77c-1.4,0-2.82,0-4.24.12a65.86,65.86,0,0,0-28.74,8.81l-.72.39a15.09,15.09,0,0,0-4.64,3.38c-4.35,5-9.67,7.56-15.82,7.56A27.94,27.94,0,0,1,733,1324c-17.14-9.42-28.93-19.62-37.12-32.12-5.44-8.32-9.24-18-12.31-31.45-4.28-18.72-8.55-102.76,25-162.53,10-1.28,53.06-2.63,101.09-2.63,56.39,0,78.24,1.81,83,3,3.5,4.19,11.88,21.86,18.5,49.81,8,33.67,10.25,68.88,6.38,99.13-3.52,27.49-11.48,45.76-25.84,59.23-2.63,2.47-5.61,5.13-9.38,8.38-2.57,2.22-5.11,4.3-7.79,6.51l-2,1.67a22,22,0,0,1-14.41,5.32Z"/><path d="M809.64,1101.22c49.55,0,72.11,1.4,79.46,2.47,3.32,5.4,10.52,21.2,16.6,47.59,5.27,22.92,10.57,58,5.83,95.14-3.33,26-10.73,43.16-24,55.61-2.56,2.41-5.48,5-9.19,8.22-2.52,2.18-5,4.24-7.7,6.42l-2,1.66a15.88,15.88,0,0,1-10.59,4,20.68,20.68,0,0,1-3.17-.25c-4.31-.66-8.07-3-12.75-6.64a66.68,66.68,0,0,0-41.69-14c-1.52,0-3.06,0-4.59.13a71.79,71.79,0,0,0-31.32,9.57l-.59.31a20.81,20.81,0,0,0-6.38,4.76c-3.2,3.7-6.89,5.49-11.28,5.49a22,22,0,0,1-10.41-3c-16.24-8.92-27.36-18.5-35-30.15-5-7.69-8.58-16.79-11.48-29.49-2-8.72-4.17-34-1.52-64.82,2.15-24.92,8.15-60.33,24.43-90.73,13.52-1.14,53.9-2.28,97.35-2.28m0-12c-50.28,0-103.92,1.53-105,3.45-36.19,62.08-31.35,149.65-26.92,169,2.7,11.8,6.4,23.09,13.14,33.39,9.92,15.15,23.79,25.6,39.25,34.1a34,34,0,0,0,16.19,4.43c7.29,0,14.48-2.85,20.35-9.64a13.62,13.62,0,0,1,3.77-2.45,60.18,60.18,0,0,1,26.15-8.06c1.31-.07,2.6-.11,3.89-.11a55,55,0,0,1,34.36,11.52c5.67,4.38,11.19,7.91,18.26,9a33,33,0,0,0,5,.39,27.93,27.93,0,0,0,18.22-6.69c3.36-2.77,6.63-5.42,9.93-8.27s6.49-5.66,9.57-8.55c18.12-17,24.68-39.34,27.68-62.84,9.26-72.43-17.41-146-27.46-154.84-4.71-2.81-44.35-3.88-86.33-3.88Z"/><polygon class="cls-5" points="810.68 1119.21 800 1119.19 789.31 1119.18 775.13 1242.52 799.79 1262.56 824.5 1242.6 810.68 1119.21"/><path class="cls-6" d="M800,1128.85a191.65,191.65,0,0,1-67.1-12.23l-.4-.14,7-18.72.39.14a171.67,171.67,0,0,0,120.58,0l7,18.73A191.54,191.54,0,0,1,800,1128.85Z"/><path class="cls-1" d="M707.42,1305.73a80,80,0,0,1-11.57-13.9c-5.45-8.32-9.25-18-12.32-31.45-4-17.69-8.31-96.94,21.69-156.28l51.7,20.16c-.08,11.66-.82,46.93-6.34,83.49C742.38,1262,727.5,1295.72,707.42,1305.73Z"/><path d="M708.2,1111.7l42.67,16.64a617.67,617.67,0,0,1-6.25,78.65c-7.25,47.94-20,79.78-36.22,91.18a72.5,72.5,0,0,1-7.53-9.63c-5-7.69-8.58-16.79-11.49-29.49-3.82-16.75-7.84-90.14,18.82-147.35m-5.79-15.13c-33.79,61.79-29.07,146.15-24.72,165.15,2.69,11.8,6.39,23.09,13.14,33.39a87.82,87.82,0,0,0,15.37,17.66c58.58-21.21,56.73-192.61,56.73-192.61l-60.52-23.59Z"/><path d="M705.22,1104.1l15.34,6-5.69,62.47-.51,5.67,5.63.81,18.21,2.63-27.29,37.92-1.77,2.45.92,2.88,18.53,58.14c-6.23,11.15-13.33,18.76-21.17,22.68a79.6,79.6,0,0,1-11.57-13.9c-5.45-8.32-9.25-18-12.32-31.45-2-8.75-4.26-34.06-1.8-64.71,2-24.83,7.71-60.35,23.49-91.57m-2.81-7.53c-33.79,61.79-29.07,146.15-24.73,165.15,2.7,11.8,6.4,23.09,13.15,33.39a87.82,87.82,0,0,0,15.37,17.66c12-4.34,21.43-15,28.88-29.1l-19.3-60.58,33.06-46-28-4,6.1-67-24.54-9.56Z"/><path class="cls-1" d="M892.34,1306c-20.06-10.07-34.84-43.84-42.88-98.11-5.41-36.58-6.05-71.84-6.1-83.51l51.76-20C925,1163.8,920.45,1243,916.35,1260.72c-3.11,13.42-6.93,23.11-12.4,31.41A80.18,80.18,0,0,1,892.34,1306Z"/><path d="M892.12,1112c26.5,57.28,22.26,130.67,18.39,147.4-2.94,12.69-6.51,21.78-11.57,29.46a72.56,72.56,0,0,1-7.56,9.61c-16.21-11.45-28.84-43.33-36-91.29-4.84-32.65-5.83-64.29-6-78.67L892.12,1112m5.84-15.12-60.59,23.41s-2.35,171.4,56.17,192.79A88.4,88.4,0,0,0,909,1295.43c6.78-10.28,10.51-21.56,13.24-33.35,4.4-19,9.37-103.34-24.24-165.23Z"/><path d="M895.12,1104.38c15.7,31.27,21.31,66.8,23.23,91.64,2.37,30.65,0,56-2,64.7-3.11,13.42-6.93,23.11-12.4,31.41A80.56,80.56,0,0,1,892.34,1306c-7.83-4-14.92-11.57-21.11-22.74l18.7-58.09.93-2.87-1.76-2.46-27.18-38,18.21-2.57,5.64-.8-.5-5.67-5.51-62.48,15.36-5.94m2.84-7.53-24.57,9.5,5.9,67-28,4,32.93,46-19.48,60.53c7.41,14.17,16.83,24.81,28.8,29.19A88.4,88.4,0,0,0,909,1295.43c6.78-10.28,10.51-21.56,13.24-33.35,4.4-19,9.37-103.34-24.24-165.23Z"/><path class="cls-3" d="M747.4,1137.78a16.49,16.49,0,0,1-7-1.52c-3.36-1.61-7.11-3.24-11.09-5-16.09-7-36-15.69-42.5-28,0-13.39,1.57-26.89,3.56-31,6.86,1,28.52,8.88,47.79,15.87,15.42,5.6,31.37,11.39,45.69,16a3.76,3.76,0,0,1,1.51.84l-.19.16-.3.25L756.56,1135A15.41,15.41,0,0,1,747.4,1137.78Z"/><path d="M695.88,1074.71h0m-1.31,4.76c9.56,2.74,27.57,9.28,41.52,14.34,12.87,4.68,26.11,9.49,38.5,13.66l-22,23a10,10,0,0,1-5.22,1.33,10.57,10.57,0,0,1-4.45-.93c-3.46-1.65-7.26-3.31-11.28-5.06-13.88-6.06-32.57-14.21-38.89-24.08a147.53,147.53,0,0,1,1.79-22.24m-5.44-13.28a4.44,4.44,0,0,0-1,.1c-7.69,1.94-7.36,38.43-7.36,38.43,8.35,18.3,39.18,28.45,57,37a22.43,22.43,0,0,0,9.63,2.11,21.18,21.18,0,0,0,13.2-4.31l28.3-29.6c4.47-3.61,2.8-9.42-3.24-11.37-36.74-11.92-86.67-32.31-96.53-32.31Z"/><path class="cls-3" d="M852.55,1137.93a15.39,15.39,0,0,1-9.2-2.79l-28.19-29.65-.3-.24-.18-.16a3.64,3.64,0,0,1,1.51-.84c14.33-4.6,30.29-10.34,45.73-15.9,19.29-6.94,41-14.75,47.84-15.73,2,4.13,3.52,17.63,3.47,31-6.54,12.26-26.47,20.88-42.58,27.85-4,1.72-7.74,3.35-11.11,4.94a16.37,16.37,0,0,1-7,1.5Z"/><path d="M911.15,1078.51h0m-5.65,1.27a147.28,147.28,0,0,1,1.73,22.25c-6.36,9.85-25.07,17.94-39,24-4,1.75-7.84,3.39-11.29,5a10.5,10.5,0,0,1-4.43.92,10,10,0,0,1-5.25-1.35l-21.9-23c12.4-4.14,25.66-8.91,38.55-13.55,14-5,32-11.51,41.55-14.22m5.46-13.26c-9.91,0-59.85,20.22-96.61,32-6,1.94-7.73,7.74-3.27,11.36l28.21,29.68a21.2,21.2,0,0,0,13.26,4.35,22.58,22.58,0,0,0,9.57-2.07c17.83-8.46,48.69-18.52,57.1-36.8,0,0,.43-36.48-7.25-38.44a4.15,4.15,0,0,0-1-.1Z"/><path class="cls-7" d="M1049.69,1252.47a5.67,5.67,0,0,1-3-.83l-83.19-48.57a10.07,10.07,0,0,1-3.22-14.06,10.06,10.06,0,0,1,14.18-2.84l78.43,55.79a5.75,5.75,0,0,1-3.23,10.51Z"/><path d="M968.79,1186.89h0a7.52,7.52,0,0,1,4.25,1.32l78.43,55.79,0,0,0,0a3.25,3.25,0,0,1-1.85,5.93,3.14,3.14,0,0,1-1.68-.47l0,0,0,0-83.12-48.53a7.57,7.57,0,0,1-2.41-10.57,7.57,7.57,0,0,1,6.38-3.47m0-5a12.58,12.58,0,0,0-6.53,23.34l83.16,48.55a8.25,8.25,0,0,0,8.95-13.86l-78.47-55.81a12.51,12.51,0,0,0-7.11-2.22Z"/><path class="cls-8" d="M560.16,1236.75l50.57-47a22.26,22.26,0,0,1,15.15-6,18.27,18.27,0,0,1,9.63,2.56l5.48,3.38a12.1,12.1,0,0,1,5.89,8.45,13.62,13.62,0,0,1-3.55,10.93l-45,51.18Z"/><path d="M625.89,1181.77v4a16.3,16.3,0,0,1,8.57,2.26l5.48,3.39a10.15,10.15,0,0,1,5,7,11.59,11.59,0,0,1-3.06,9.28l-43.92,49.94-34.48-21.26,48.66-45.22,0,0,0,0a20.15,20.15,0,0,1,13.73-5.39v-4m0,0a24.12,24.12,0,0,0-16.51,6.51l-52.5,48.79,41.82,25.79,46.15-52.47c6.5-7.54,5.27-17.4-2.8-22.38l-5.48-3.38a20.33,20.33,0,0,0-10.68-2.86Z"/><path class="cls-9" d="M589.06,1277.29l-.94-.58a64.29,64.29,0,0,1-18.39-16.83h0c-4.29-5.92-11.17-10.1-19.37-11.79L545.1,1247c-3.49-.72-4.39-4.41-1.63-6.72l28.16-23.64c4.76-4,12-4.73,16.85-1.72l29,17.89c5,3.07,6,9.06,2.27,13.88l-22.08,28.86A6.87,6.87,0,0,1,589.06,1277.29Z"/><path class="cls-10" d="M619.76,1246.69c3.69-4.82,2.71-10.81-2.27-13.88l-29-17.89c-4.88-3-12.09-2.28-16.85,1.72l-9.37,7.86c2.27,6.4,6.29,13.07,11,14.31,6.38,1.68,21,3.38,21.32,9.92.2,3.4,8.39,7.1,16.29,9.55Z"/></svg>