<svg xmlns="http://www.w3.org/2000/svg" xmlns:xlink="http://www.w3.org/1999/xlink" viewBox="0 0 924.11 544.94"><defs><style>.cls-1,.cls-2,.cls-3,.cls-4,.cls-5,.cls-6,.cls-7,.cls-8{stroke:#000;stroke-miterlimit:10;stroke-width:14px;}.cls-1,.cls-5{stroke-linecap:round;}.cls-1{fill:url(#未命名的渐变_23);}.cls-2{fill:url(#未命名的渐变_23-2);}.cls-3{fill:url(#未命名的渐变_23-3);}.cls-4{fill:url(#未命名的渐变_23-4);}.cls-5{fill:url(#未命名的渐变_23-5);}.cls-6{fill:url(#未命名的渐变_23-6);}.cls-7{fill:url(#未命名的渐变_23-7);}.cls-8{fill:url(#未命名的渐变_23-8);}.cls-9{fill:url(#未命名的渐变_23-9);}</style><linearGradient id="未命名的渐变_23" x1="122.8" y1="530.44" x2="122.8" y2="275.98" gradientTransform="translate(-8.5 6.25) rotate(0.09)" gradientUnits="userSpaceOnUse"><stop offset="0" stop-color="#b747dd"/><stop offset="1" stop-color="#fbcd17"/></linearGradient><linearGradient id="未命名的渐变_23-2" x1="186.46" y1="401.94" x2="186.46" y2="219.58" gradientTransform="translate(466.8 99.03) rotate(83.93)" xlink:href="#未命名的渐变_23"/><linearGradient id="未命名的渐变_23-3" x1="249.8" y1="345.24" x2="249.8" y2="140.88" gradientTransform="translate(236.69 -98.82) rotate(45.09)" xlink:href="#未命名的渐变_23"/><linearGradient id="未命名的渐变_23-4" x1="344.02" y1="315.86" x2="344.02" y2="72.36" xlink:href="#未命名的渐变_23"/><linearGradient id="未命名的渐变_23-5" x1="819.68" y1="530.41" x2="819.68" y2="275.95" xlink:href="#未命名的渐变_23"/><linearGradient id="未命名的渐变_23-6" x1="756.02" y1="401.92" x2="756.02" y2="219.56" gradientTransform="translate(28.15 -70.86) rotate(6.07)" xlink:href="#未命名的渐变_23"/><linearGradient id="未命名的渐变_23-7" x1="692.68" y1="345.22" x2="692.68" y2="140.87" gradientTransform="translate(366.87 -411.8) rotate(45.09)" xlink:href="#未命名的渐变_23"/><linearGradient id="未命名的渐变_23-8" x1="598.45" y1="315.85" x2="598.45" y2="72.35" xlink:href="#未命名的渐变_23"/><linearGradient id="未命名的渐变_23-9" x1="488.52" y1="304.05" x2="488.52" y2="0.02" xlink:href="#未命名的渐变_23"/></defs><g id="图层_2" data-name="图层 2"><g id="图层_1-2" data-name="图层 1"><path class="cls-1" d="M88.87,378.24s-10.17-84.6,41.19-94.33,90.39,32.8,90.39,32.8-5.85,228.91-147,219.86c-107.81-6.92-64.23-153.27-10-159.88,78.39-9.55,55.8,118.86,6.38,71"/><ellipse class="cls-2" cx="177.49" cy="317.3" rx="91.28" ry="81.25" transform="translate(-157.01 459.75) rotate(-83.85)"/><circle class="cls-3" cx="240.93" cy="249.69" r="102.18" transform="translate(-105.99 243.5) rotate(-45)"/><circle class="cls-4" cx="335.23" cy="200.88" r="121.75"/><path class="cls-5" d="M835.5,379.33s10.42-84.57-40.91-94.45-90.49,32.53-90.49,32.53,5.18,228.93,146.41,220.29c107.83-6.6,64.68-153.08,10.46-159.84-78.37-9.78-56.15,118.69-6.59,71"/><ellipse class="cls-6" cx="747.06" cy="318.13" rx="81.25" ry="91.28" transform="translate(-29.11 79.66) rotate(-5.99)"/><circle class="cls-7" cx="683.81" cy="250.33" r="102.18" transform="translate(23.27 556.85) rotate(-45)"/><circle class="cls-8" cx="589.66" cy="201.25" r="121.75"/><path class="cls-9" d="M551.48,311.14a81.07,81.07,0,0,1-40.32-10.43l-23.65-13.34,10.11,16.4L481,305.59a154.63,154.63,0,0,1-16.64.91,150.63,150.63,0,0,1-104.62-42.11,146.88,146.88,0,0,1-45.67-103.58c0-1.14,0-2.27,0-3.4C314.21,54.79,396.19,7.51,472.3,7h1.12c36.19,0,66.95,11.67,89,33.73,23.55,23.62,36,57.77,35.86,98.76,0,11.86-2.51,33.85-5.78,51.13-3.7,19.63-.08,39.37,10.21,55.57,11,17.3,25.73,26.54,42.69,26.74-22,16.57-57.61,38.21-93.88,38.21Z"/><path d="M473.42,14c34.29,0,63.33,11,84,31.68,22.22,22.27,33.91,54.7,33.82,93.79,0,11.5-2.46,32.93-5.65,49.85A83.66,83.66,0,0,0,596.77,250c8.45,13.31,19,22.37,31.07,26.81-20.78,13.7-48.51,27.38-76.35,27.38a74.25,74.25,0,0,1-35.37-8.69c-.33-.27-.67-.53-1-.77-12.74-8.82-29.05-30.62-46-61.41a16,16,0,0,0-14-8.33,16.28,16.28,0,0,0-13.64,7.51,15.89,15.89,0,0,0-.88,15.37c9.9,20.9,21.45,38,34.5,51.28-3.59.27-7.2.4-10.77.4a143.56,143.56,0,0,1-99.77-40.17,139.87,139.87,0,0,1-43.52-98.67c0-1.08,0-2.16,0-3.24,0-23.38,4.49-44.74,13.24-63.46a127.3,127.3,0,0,1,34.18-44.17A150.12,150.12,0,0,1,417,23.14,177.12,177.12,0,0,1,472.35,14h1.07M667.16,276.16h0M473.42,0h-1.16c-80.51.54-165,51.09-165.2,157.4,0,1.19,0,2.37,0,3.55,1.81,85.92,73.3,152.55,157.29,152.55a159.87,159.87,0,0,0,17.4-.95l24.43-2.68a2,2,0,0,0,1.51-3.06c-19.77-11.15-38.54-31.47-54.42-65a2,2,0,0,1,1.87-2.88,1.91,1.91,0,0,1,1.71,1.07c13.36,24.35,32,53.56,50.25,66.18a1.93,1.93,0,0,1,.59.62,87.82,87.82,0,0,0,43.77,11.33c48.14,0,94.28-35.36,113.11-51.79a2,2,0,0,0-1.31-3.54,2.24,2.24,0,0,0-.7.12,51,51,0,0,1-16.64,3c-17.55,0-29.5-11.11-37.36-23.5a70,70,0,0,1-9.24-50.52c3.3-17.46,5.87-39.95,5.9-52.41.2-85-52-139.51-131.83-139.51Z"/></g></g></svg>