<svg id="图层_1" data-name="图层 1" xmlns="http://www.w3.org/2000/svg" viewBox="0 0 1600 1600"><defs><style>.cls-1{fill:#945848;}.cls-2{fill:#543229;}.cls-3{fill:#fff2a9;}.cls-4{fill:#18527a;}.cls-5,.cls-6{fill:none;stroke-miterlimit:10;stroke-width:3px;}.cls-5{stroke:#fff;}.cls-6{stroke:#000;}</style></defs><path class="cls-1" d="M668.48,1157.41c-25.54,0-45.09-10.52-48.67-26.18-2.19-9.59,1.81-20.2,11.25-29.85,10.13-10.35,25.06-18.19,42.06-22.07a98.78,98.78,0,0,1,21.88-2.52c25.54,0,45.1,10.52,48.67,26.18,2.19,9.6-1.8,20.2-11.25,29.85-10.12,10.35-25.06,18.19-42,22.07A98.86,98.86,0,0,1,668.48,1157.41Z"/><path d="M695,1082.79c22.32,0,39.92,8.85,42.81,21.51,1,4.37,1.07,13.34-9.69,24.33-9.19,9.4-23.44,16.84-39.1,20.41a92.82,92.82,0,0,1-20.55,2.37c-22.32,0-39.93-8.84-42.82-21.51-1-4.37-1.06-13.33,9.69-24.33,9.2-9.39,23.45-16.83,39.1-20.41a92.84,92.84,0,0,1,20.56-2.37h0m0-12a104.87,104.87,0,0,0-23.22,2.67c-37.43,8.55-63.32,35-57.82,59.11,4.34,19,26.85,30.84,54.52,30.84a104.8,104.8,0,0,0,23.22-2.67c37.43-8.55,63.32-35,57.82-59.11-4.33-19-26.85-30.84-54.52-30.84Z"/><path class="cls-1" d="M931.52,1157.41a98.86,98.86,0,0,1-21.89-2.52c-17-3.88-31.93-11.72-42-22.07-9.45-9.65-13.44-20.25-11.25-29.85,3.57-15.66,23.13-26.18,48.67-26.18a98.78,98.78,0,0,1,21.88,2.52c17,3.88,31.93,11.72,42.06,22.07,9.44,9.65,13.44,20.26,11.25,29.85-3.58,15.66-23.13,26.18-48.67,26.18Z"/><path d="M905,1082.79a92.89,92.89,0,0,1,20.55,2.37c15.65,3.58,29.9,11,39.1,20.41,10.75,11,10.68,20,9.69,24.33-2.89,12.67-20.5,21.51-42.82,21.51A92.82,92.82,0,0,1,911,1149c-15.66-3.57-29.91-11-39.1-20.41-10.76-11-10.69-20-9.69-24.33,2.89-12.66,20.5-21.51,42.82-21.51m0-12c-27.67,0-50.19,11.86-54.52,30.84-5.5,24.1,20.39,50.56,57.82,59.11a104.8,104.8,0,0,0,23.22,2.67c27.67,0,50.18-11.85,54.52-30.84,5.5-24.1-20.39-50.56-57.82-59.11a104.87,104.87,0,0,0-23.22-2.67Z"/><path class="cls-2" d="M864.21,1328.29a31.51,31.51,0,0,1-4.57-.35c-6.3-1-11.33-4.06-17.41-8.74a66.49,66.49,0,0,0-41.51-13.91c-1.57,0-3.17,0-4.76.15-10.72.65-21,3.82-31.45,9.69l-.81.44a16,16,0,0,0-4.94,3.59c-4.92,5.7-11,8.59-18,8.59a31.46,31.46,0,0,1-15-4.13c-19-10.42-32.14-21.73-41.26-35.61-6.06-9.24-10.3-20-13.73-34.9-4.77-20.75-9.65-114,27.58-180.22,10.76-1.5,60.4-3.11,115.92-3.11,56.72,0,82.56,1.72,88,3.26,3.94,4.51,13.23,23.78,20.77,55.39,6.28,26.34,12.64,66.75,7.21,109.66-4.94,39.11-17.89,55.72-28.62,65.82-2.9,2.73-6.2,5.68-10.36,9.28-2.85,2.46-5.65,4.77-8.61,7.21l-2.24,1.85a24.77,24.77,0,0,1-16.33,6Z"/><path d="M814.36,1075.78c53.39,0,77.2,1.55,84.6,2.71,4,6.16,12.27,25.16,18.75,53,5.94,25.49,11.93,64.55,6.71,105.88-3.67,29-11.93,48.22-26.78,62.2-2.84,2.67-6.08,5.57-10.18,9.11-2.79,2.42-5.57,4.71-8.5,7.13l-2.24,1.84a18.77,18.77,0,0,1-12.51,4.67,24.62,24.62,0,0,1-3.66-.28c-5-.77-9.34-3.46-14.66-7.56a72.38,72.38,0,0,0-45.18-15.16c-1.68,0-3.4.06-5.11.16-11.64.7-22.77,4.12-34,10.45l-.68.36a21.69,21.69,0,0,0-6.68,5c-3.78,4.38-8.17,6.52-13.41,6.52a25.6,25.6,0,0,1-12.08-3.4c-18.13-9.93-30.57-20.62-39.12-33.64-5.66-8.62-9.64-18.78-12.9-33-2.23-9.7-4.69-37.81-1.81-72,2.35-27.8,9-67.38,27.3-101.3,14.71-1.36,61.56-2.74,112.16-2.74m0-12c-56.6,0-118.64,1.82-119.9,4-39.85,68.61-34.37,165.28-29.44,186.7,3,13,7.1,25.48,14.56,36.84,11,16.71,26.3,28.23,43.39,37.58a37.48,37.48,0,0,0,17.84,4.88c8.06,0,16-3.17,22.5-10.68,1-1.21,2.7-1.91,4.15-2.72a66.36,66.36,0,0,1,28.86-8.93c1.48-.09,2.94-.14,4.39-.14A60.7,60.7,0,0,1,838.57,1324c6.27,4.82,12.37,8.72,20.17,9.91a36.79,36.79,0,0,0,5.47.42,30.82,30.82,0,0,0,20.15-7.42c3.71-3.06,7.32-6,10.95-9.14s7.16-6.26,10.55-9.45c20-18.81,27.19-43.48,30.46-69.44,10.11-80-19.46-161.18-30.56-170.9-5.06-3-46.52-4.16-91.4-4.16Z"/><path class="cls-3" d="M911.57,1199.59c-.77-55.21-18.76-103.48-26.28-110.37-9.22-5.74-168.48-3.41-170.3-.14-19,34.21-25.22,76.19-26.3,108.5C744.72,1202.52,831.28,1207.22,911.57,1199.59Z"/><path class="cls-4" d="M688.67,1197.7c-.75,19.73.94,35.39,2.57,41.92,2.41,9.71,5.72,19,11.73,27.48,8.85,12.47,21.2,21.06,35,28,10.56,5.35,23.36,5.49,32.52-4.33a12.22,12.22,0,0,1,3.34-2,56.58,56.58,0,0,1,23.27-6.66c12.62-.71,24.19,2.32,34,9.34,5,3.61,10,6.51,16.25,7.4a26.6,26.6,0,0,0,20.66-5.22c3-2.29,5.89-4.48,8.82-6.82s5.76-4.67,8.5-7c16.1-14,21.91-32.44,24.55-51.8a189.66,189.66,0,0,0,1.65-28.5C831.26,1206.23,744.7,1202.07,688.67,1197.7Z"/><path class="cls-5" d="M688.49,1207.25s128.06,8.45,223.08,0"/><path class="cls-6" d="M688.94,1190.19s128.24,14,223.38,0"/><ellipse class="cls-1" cx="850.65" cy="1135.57" rx="10.55" ry="11.03"/><ellipse class="cls-1" cx="871.79" cy="1147.1" rx="7.15" ry="7.48"/><path class="cls-1" d="M882.5,1137.74a6.46,6.46,0,1,0-6.16-6.45A6.31,6.31,0,0,0,882.5,1137.74Z"/><path class="cls-1" d="M868.7,1135.72a3.38,3.38,0,1,0-3.24-3.38A3.3,3.3,0,0,0,868.7,1135.72Z"/><path class="cls-1" d="M882.15,1152.12a2.27,2.27,0,1,0,2.27-2.37A2.32,2.32,0,0,0,882.15,1152.12Z"/><path class="cls-1" d="M880.67,1158.05a8.7,8.7,0,1,0,8.3,8.69A8.51,8.51,0,0,0,880.67,1158.05Z"/><ellipse class="cls-1" cx="852.59" cy="1162.54" rx="12.05" ry="12.6"/></svg>