<svg id="图层_1" data-name="图层 1" xmlns="http://www.w3.org/2000/svg" viewBox="0 0 1600 1600"><defs><style>.cls-1{fill:#f3d0b2;}.cls-2{fill:#543229;}.cls-3{fill:#00d2b0;}.cls-10,.cls-4,.cls-5,.cls-6,.cls-7,.cls-8,.cls-9{fill:none;stroke-linecap:round;stroke-miterlimit:10;}.cls-4,.cls-7,.cls-8{stroke:#000;}.cls-4{stroke-width:6px;}.cls-4,.cls-7{opacity:0.4;}.cls-5,.cls-6{stroke:#004200;opacity:0.2;}.cls-10,.cls-5,.cls-7,.cls-8,.cls-9{stroke-width:4px;}.cls-6{stroke-width:2px;}.cls-10,.cls-8,.cls-9{opacity:0.8;}.cls-9{stroke:#ffff15;}.cls-10{stroke:#ff15ee;}</style></defs><path class="cls-1" d="M593.63,1271.35a8.73,8.73,0,0,1-6.87-3.73l-.79-1-1.24.29a13.66,13.66,0,0,1-3,.35c-9.65,0-17.5-10.32-17.5-23s7.85-23,17.5-23,17.5,10.32,17.5,23v2l2.06.08c.86,0,1.46-.45,2.47-1.42a31.18,31.18,0,0,1-.24,3.75,32.1,32.1,0,0,0,.08,9.82,10.5,10.5,0,0,1-2.29,8.88A10.38,10.38,0,0,1,593.63,1271.35Z"/><path d="M581.71,1223.25c8.55,0,15.5,9.42,15.5,21a4.07,4.07,0,0,0,4.06,4.08h.25v.14a33.81,33.81,0,0,0,.11,10.41,8.6,8.6,0,0,1-1.87,7.22,8.38,8.38,0,0,1-6.12,3.26,7,7,0,0,1-5.29-2.95l-1.57-2-2.49.57a11.4,11.4,0,0,1-2.57.3c-8.55,0-15.5-9.42-15.5-21s6.95-21,15.5-21m0-4c-10.77,0-19.5,11.2-19.5,25s8.73,25,19.5,25a15.45,15.45,0,0,0,3.47-.4,10.76,10.76,0,0,0,8.45,4.5c6.58,0,13.58-7,11.91-15.27-1.44-7.13,1.78-13.75-.9-16.55,0,0,0-.07,0-.07-.38,0-2.9,2.87-3.32,2.87,0,0-.06,0-.06-.08,0-13.8-8.73-25-19.5-25Z"/><path class="cls-1" d="M1006.37,1271.35a10.38,10.38,0,0,1-7.66-4,10.5,10.5,0,0,1-2.29-8.88,32.1,32.1,0,0,0,.08-9.82,31.18,31.18,0,0,1-.24-3.75c1,1,1.61,1.42,2.47,1.42h2l.06-2.08c0-12.68,7.85-23,17.5-23s17.5,10.32,17.5,23-7.85,23-17.5,23a13.66,13.66,0,0,1-3-.35l-1.24-.29-.79,1A8.73,8.73,0,0,1,1006.37,1271.35Z"/><path d="M1018.29,1223.25c8.55,0,15.5,9.42,15.5,21s-7,21-15.5,21a11.4,11.4,0,0,1-2.57-.3l-2.49-.57-1.57,2a7,7,0,0,1-5.29,2.95,8.38,8.38,0,0,1-6.12-3.26,8.6,8.6,0,0,1-1.87-7.22,33.81,33.81,0,0,0,.11-10.41v-.14h.25a4.07,4.07,0,0,0,4.06-4.08c0-11.58,7-21,15.5-21m0-4c-10.77,0-19.5,11.2-19.5,25,0,0,0,.08-.06.08-.42,0-2.94-2.87-3.32-2.87,0,0,0,0,0,.07-2.68,2.8.54,9.42-.9,16.55-1.67,8.27,5.33,15.27,11.91,15.27a10.76,10.76,0,0,0,8.45-4.5,15.45,15.45,0,0,0,3.47.4c10.77,0,19.5-11.19,19.5-25s-8.73-25-19.5-25Z"/><path class="cls-2" d="M864.21,1328.29a31.51,31.51,0,0,1-4.57-.35c-6.3-1-11.33-4.06-17.41-8.74a66.49,66.49,0,0,0-41.51-13.91c-1.57,0-3.17,0-4.76.15-10.72.65-21,3.82-31.45,9.69l-.81.44a16,16,0,0,0-4.94,3.59c-4.92,5.7-11,8.59-18,8.59a31.46,31.46,0,0,1-15-4.13c-19-10.42-32.14-21.73-41.26-35.61-6.06-9.24-10.3-20-13.73-34.9-4.77-20.75-9.65-114,27.58-180.22,10.76-1.5,60.4-3.11,115.92-3.11,56.72,0,82.56,1.72,88,3.26,3.94,4.51,13.23,23.78,20.77,55.39,6.28,26.34,12.64,66.75,7.21,109.66-4.94,39.11-17.89,55.72-28.62,65.82-2.9,2.73-6.2,5.68-10.36,9.28-2.84,2.46-5.63,4.76-8.59,7.19l-2.26,1.87a24.77,24.77,0,0,1-16.33,6Z"/><path d="M814.36,1075.78c53.39,0,77.2,1.55,84.6,2.71,4,6.16,12.27,25.16,18.75,53,5.94,25.49,11.93,64.55,6.71,105.88-3.67,29-11.93,48.22-26.78,62.2-2.84,2.67-6.08,5.57-10.18,9.11-2.79,2.42-5.57,4.71-8.5,7.12l-2.24,1.85a18.77,18.77,0,0,1-12.51,4.67,24.62,24.62,0,0,1-3.66-.28c-5-.77-9.34-3.46-14.66-7.56a72.38,72.38,0,0,0-45.18-15.16c-1.68,0-3.4.06-5.11.16-11.64.7-22.77,4.12-34,10.45l-.68.36a21.69,21.69,0,0,0-6.68,5c-3.78,4.38-8.17,6.52-13.41,6.52a25.6,25.6,0,0,1-12.08-3.4c-18.13-9.93-30.57-20.62-39.12-33.64-5.66-8.62-9.64-18.78-12.9-33-2.23-9.7-4.69-37.81-1.81-72,2.35-27.8,9-67.38,27.3-101.3,14.71-1.36,61.56-2.74,112.16-2.74m0-12c-56.6,0-118.64,1.82-119.9,4-39.85,68.61-34.37,165.28-29.44,186.7,3,13,7.1,25.48,14.56,36.84,11,16.71,26.3,28.23,43.39,37.58a37.48,37.48,0,0,0,17.84,4.88c8.06,0,16-3.17,22.5-10.68,1-1.21,2.7-1.91,4.15-2.72a66.36,66.36,0,0,1,28.86-8.93c1.48-.09,2.94-.14,4.39-.14A60.7,60.7,0,0,1,838.57,1324c6.27,4.82,12.37,8.72,20.17,9.91a36.79,36.79,0,0,0,5.47.42,30.82,30.82,0,0,0,20.15-7.42c3.71-3.06,7.32-6,10.95-9.14s7.16-6.26,10.55-9.45c20-18.81,27.19-43.48,30.46-69.44,10.11-80-19.46-161.18-30.56-170.9-5.06-3-46.52-4.16-91.4-4.16Z"/><path class="cls-3" d="M923.85,1280.25c-5.92,0-15.78-2.42-29.43-5.78-23.7-5.82-59.51-14.62-94.42-14.62s-70.73,8.8-94.42,14.62c-13.65,3.36-23.51,5.78-29.43,5.78a17.45,17.45,0,0,1-2.12-.12c-7.86-.92-14.1-4.51-18-10.39-6.47-9.66-5.23-22.9-4-29.79-8.47-7.15-12.7-23.41-13-50.09-8.8,11.27-14.15,20.32-14.77,23.33-2,10-10.11,16.32-14.73,19.17a3,3,0,0,0-1.4,1.9l-1.21,5.43a14.91,14.91,0,0,1-14.61,11.71,15.11,15.11,0,0,1-3.72-.47l-12.11-3.09a15,15,0,0,1-10.52-19.22,100.31,100.31,0,0,0,4-20.38c2.69-25.16,34.67-70.55,62.5-105.85-24.81-23.67-15.77-51-15.35-52.18l1.58-4.55,111.76,12.9.54.94,69-27.79,69,27.78.55-.93,111.76-12.9,1.58,4.55c.42,1.22,9.46,28.51-15.35,52.18,27.83,35.3,59.81,80.69,62.5,105.85a100.31,100.31,0,0,0,4,20.38,15,15,0,0,1-10.52,19.22l-12.11,3.09a15.09,15.09,0,0,1-3.71.47h0a14.91,14.91,0,0,1-14.61-11.71l-1.21-5.43a3,3,0,0,0-1.4-1.9c-4.62-2.85-12.67-9.13-14.74-19.17-.61-3-6-12.06-14.76-23.33-.33,26.68-4.56,42.94-13,50.09,1.27,6.89,2.51,20.13-4,29.79-3.93,5.88-10.17,9.47-18,10.39A17.45,17.45,0,0,1,923.85,1280.25Z"/><path d="M800,1038.18,871.56,1067l1.65-2.82,104-12s9.47,27.36-17.93,49.47c23.79,29.83,62,81.3,64.78,107.23a106.37,106.37,0,0,0,4.3,21.62,9,9,0,0,1-6.3,11.52l-12.11,3.1a9.08,9.08,0,0,1-2.23.28,9,9,0,0,1-8.76-7l-1.22-5.43a9,9,0,0,0-4.1-5.7c-4-2.45-10.42-7.51-12-15.27-1.3-6.33-12.63-23-26.9-38.92,1.18,30-1.17,58.74-13.54,64.12,0,0,9.55,34-15.93,37a12.08,12.08,0,0,1-1.41.07c-15.07,0-69.46-20.4-123.85-20.4s-108.79,20.4-123.85,20.4a12.08,12.08,0,0,1-1.41-.07c-25.48-3-15.93-37-15.93-37-12.37-5.38-14.72-34.09-13.54-64.12-14.27,15.9-25.6,32.59-26.9,38.92-1.59,7.76-8,12.82-12,15.27a9,9,0,0,0-4.1,5.7l-1.22,5.43a9,9,0,0,1-8.76,7,9.08,9.08,0,0,1-2.23-.28l-12.11-3.1a9,9,0,0,1-6.3-11.52,106.37,106.37,0,0,0,4.3-21.62c2.77-25.93,41-77.4,64.78-107.23-27.4-22.11-17.93-49.47-17.93-49.47l104,12,1.65,2.82L800,1038.18m0-12.94-4.48,1.8-63.66,25.64-3.69-.42-104-12-9.57-1.11-3.15,9.1a53.15,53.15,0,0,0-1.9,21.69,58.59,58.59,0,0,0,15,32.86c-10.45,13.41-23.23,30.55-34.16,47.4-16.3,25.12-24.93,43.89-26.38,57.4a93.59,93.59,0,0,1-3.76,19.15,21,21,0,0,0,14.73,26.9l12.11,3.09A21,21,0,0,0,612.75,1241l.94-4.19c8.78-5.73,14.59-13.61,16.41-22.3a37.25,37.25,0,0,1,3.81-7.16c1.64,16.53,5.48,27.88,11.73,34.77-1.09,8.26-1.27,21,5.38,31,3.44,5.14,10.1,11.58,22.31,13a23,23,0,0,0,2.82.16c6.64,0,16.28-2.37,30.86-6,24.82-6.1,58.8-14.45,93-14.45s68.17,8.35,93,14.45c14.58,3.58,24.21,6,30.86,6a22.92,22.92,0,0,0,2.82-.16c12.21-1.43,18.87-7.87,22.31-13,6.65-9.93,6.47-22.7,5.38-31,6.25-6.89,10.09-18.24,11.73-34.77a37.25,37.25,0,0,1,3.81,7.16c1.82,8.69,7.63,16.57,16.41,22.3l.94,4.19a21,21,0,0,0,25.67,15.74l12.11-3.09a21,21,0,0,0,14.73-26.9,93.59,93.59,0,0,1-3.76-19.15c-1.45-13.51-10.08-32.28-26.38-57.4-10.93-16.85-23.71-34-34.16-47.4a58.59,58.59,0,0,0,15-32.86,53.15,53.15,0,0,0-1.9-21.69l-3.15-9.1-9.57,1.11-104,12-3.69.42L804.48,1027l-4.48-1.8Z"/><path d="M633.06,1094.47a37.59,37.59,0,0,0,11.58,9.33,63.76,63.76,0,0,0,15,5.15c5.34,1.23,10.93,2.11,16.56,3.1s11.35,2.06,17,3.51a111.52,111.52,0,0,1,16.67,5.62,96.73,96.73,0,0,1,15.45,8.44,101.55,101.55,0,0,1,13.55,11l3.1,3.06,2.93,3.21,1.45,1.61,1.38,1.67,2.75,3.35a1.82,1.82,0,0,1-2.75,2.39l-.06-.07-2.84-3.11-1.42-1.55-1.49-1.48-3-2.94-3.13-2.78a96.27,96.27,0,0,0-13.42-9.81,89.94,89.94,0,0,0-14.88-7.13,105.74,105.74,0,0,0-15.92-4.44c-5.43-1.09-11-1.83-16.58-2.51s-11.33-1.27-17.15-2.29a72.18,72.18,0,0,1-17.52-5.06,48,48,0,0,1-15.44-11.15h0a5.45,5.45,0,0,1,8-7.36A1.81,1.81,0,0,0,633.06,1094.47Z"/><path d="M975.14,1101.63a48,48,0,0,1-15.44,11.15,72.18,72.18,0,0,1-17.52,5.06c-5.82,1-11.53,1.6-17.15,2.29s-11.15,1.42-16.58,2.51a105.74,105.74,0,0,0-15.92,4.44,89.94,89.94,0,0,0-14.88,7.13,96.27,96.27,0,0,0-13.42,9.81l-3.13,2.78-3,2.94-1.49,1.48-1.42,1.55-2.84,3.11-.06.06a1.82,1.82,0,0,1-2.75-2.38l2.75-3.35,1.38-1.67,1.45-1.61,2.93-3.21,3.1-3.06a102.19,102.19,0,0,1,13.55-11,96.73,96.73,0,0,1,15.45-8.44,111.52,111.52,0,0,1,16.67-5.62c5.66-1.45,11.37-2.52,17-3.51s11.22-1.87,16.56-3.1a63.76,63.76,0,0,0,15-5.15,37.75,37.75,0,0,0,11.59-9.33,5.44,5.44,0,1,1,8.38,7l-.17.19Z"/><polygon class="cls-2" points="752.22 1095.44 847.78 1095.44 800 1143.22 752.22 1095.44"/><path d="M838.12,1099.44,800,1137.56l-38.12-38.12h76.24m19.32-8H742.56L800,1148.87l57.44-57.43Z"/><path d="M633.45,1207.78a24.42,24.42,0,0,1-1-10.54,47,47,0,0,1,2-9,83.89,83.89,0,0,1,7.19-15.86,102.44,102.44,0,0,1,9.69-14,72.5,72.5,0,0,1,5.78-6.24,38,38,0,0,1,6.75-5.21l.72,1.08a35.6,35.6,0,0,0-5.6,5.84,65.72,65.72,0,0,0-4.58,6.72,97.11,97.11,0,0,0-7.15,14.55,75.68,75.68,0,0,0-4.36,15.21,36.86,36.86,0,0,0-.52,7.37,13.6,13.6,0,0,0,1.37,5.77Z"/><path d="M954.93,1208.92a18,18,0,0,0,1.71-6.32,47.74,47.74,0,0,0,.13-7.78,89.05,89.05,0,0,0-2.62-16.16,94.71,94.71,0,0,0-5.47-15.72,54.31,54.31,0,0,0-4-7.31,26.73,26.73,0,0,0-5.38-6.22l.72-1.08a28.55,28.55,0,0,1,6.67,5.76,58.75,58.75,0,0,1,5.26,7,99.71,99.71,0,0,1,8.07,15.56,96,96,0,0,1,5.33,17,56,56,0,0,1,1.18,9.23,28.5,28.5,0,0,1-1.35,10.38Z"/><path class="cls-4" d="M680.4,1230.84c39.36-8.23,79.48-17.35,119.6-17.35s80.24,9.12,119.6,17.35"/><line class="cls-5" x1="689" y1="1244.2" x2="689" y2="1262.08"/><line class="cls-6" x1="581.89" y1="1224.87" x2="579.47" y2="1232.96"/><line class="cls-6" x1="588.66" y1="1226.53" x2="586.25" y2="1234.62"/><line class="cls-6" x1="595.28" y1="1228.91" x2="592.86" y2="1237.01"/><line class="cls-5" x1="711.05" y1="1239.5" x2="711.05" y2="1257.38"/><line class="cls-5" x1="733.1" y1="1233.83" x2="733.1" y2="1251.71"/><line class="cls-5" x1="755.15" y1="1230.56" x2="755.15" y2="1248.44"/><line class="cls-5" x1="777.2" y1="1227.56" x2="777.2" y2="1245.44"/><line class="cls-5" x1="799.25" y1="1225.56" x2="799.25" y2="1243.44"/><line class="cls-5" x1="821.3" y1="1227.56" x2="821.3" y2="1245.44"/><line class="cls-5" x1="843.35" y1="1230.56" x2="843.35" y2="1248.44"/><line class="cls-5" x1="865.39" y1="1233.83" x2="865.39" y2="1251.71"/><line class="cls-5" x1="887.44" y1="1239.5" x2="887.44" y2="1257.38"/><line class="cls-5" x1="909.49" y1="1244.2" x2="909.49" y2="1262.08"/><path class="cls-7" d="M583,1214.49s12.77-.16,18.58,6.8"/><path class="cls-8" d="M1019.3,1220.43s-12.78-.17-18.58,6.79"/><path class="cls-9" d="M1017,1207.39c-2.73-.58-20.56,1.59-25.54,10.09"/><path class="cls-10" d="M1015.31,1194.31c-6.53-.84-24.57,2-31.74,11.48"/></svg>